<svg width="102" height="91" viewBox="0 0 102 91" fill="none" xmlns="http://www.w3.org/2000/svg">
<path d="M89.38 0H9.14724C8.14345 0 7.28103 0.848276 7.28103 1.83793V10.8862H1.86621C0.862414 10.8862 0 11.7345 0 12.7241V23.469C0 24.4586 0.862414 25.3069 1.86621 25.3069H7.29517V28.8414H1.86621C0.862414 28.8414 0 29.6897 0 30.6793V41.5655C0 42.5552 0.862414 43.4035 1.86621 43.4035H7.29517V46.9379H1.86621C0.862414 46.9379 0 47.7862 0 48.7759V59.5207C0 60.5103 0.862414 61.3586 1.86621 61.3586H7.29517V64.8931H1.86621C0.862414 64.8931 0 65.7414 0 66.731V77.4759C0 78.4655 0.862414 79.3138 1.86621 79.3138H7.29517V88.3621C7.29517 89.3517 8.15759 90.2 9.16138 90.2H89.3941C90.3979 90.2 91.2604 89.3517 91.2604 88.3621V1.83793C91.2604 0.848276 90.3979 0 89.3941 0H89.38ZM3.71828 14.4207H14.5903V21.631H3.71828V14.4207ZM3.71828 32.5172H14.5903V39.7276H3.71828V32.5172ZM3.71828 50.4724H14.5903V57.6828H3.71828V50.4724ZM3.71828 68.569H14.5903V75.7793H3.71828V68.569ZM87.5279 86.5241H11.0134V79.3138H16.4424C17.4462 79.3138 18.2945 78.4655 18.2945 77.4759V66.731C18.2945 65.7414 17.4321 64.8931 16.4424 64.8931H11.0134V61.3586H16.4424C17.4462 61.3586 18.2945 60.5103 18.2945 59.5207V48.6345C18.2945 47.6448 17.4321 46.7966 16.4424 46.7966H11.0134V43.2621H16.4424C17.4462 43.2621 18.2945 42.4138 18.2945 41.4241V30.6793C18.2945 29.6897 17.4321 28.8414 16.4424 28.8414H11.0134V25.3069H16.4424C17.4462 25.3069 18.2945 24.4586 18.2945 23.469V12.7241C18.2945 11.7345 17.4321 10.8862 16.4424 10.8862H11.0134V3.67586H87.5279V86.5241Z" fill="#C6CED6"/>
<path d="M66.1125 60.8998C66.1043 59.2664 64.7066 57.8687 63.0733 57.8606C55.394 57.82 55.8003 57.7387 55.5565 57.82C52.6961 57.5599 49.8925 52.9686 49.925 44.5499C49.8925 39.3166 50.9408 36.1392 51.8266 34.4246C52.4767 33.2869 53.7687 31.3285 55.7353 31.3447L56.0603 31.3447L63.0895 31.3854C64.7229 31.3935 66.1043 30.012 66.0962 28.3787L65.828 10.8829C65.8199 9.24955 64.4222 7.85184 62.7888 7.84371C61.1555 7.83559 57.8887 7.81933 55.4346 7.80308C49.2099 7.75432 44.1635 10.6716 40.6774 16.2869C36.7931 22.479 34.9647 32.0273 35.0378 44.6149C35.1028 55.244 36.8093 68.9773 44.3748 76.5428C47.5766 79.7445 51.599 81.4917 55.9303 81.5973C56.0387 81.5973 56.147 81.5973 56.2554 81.5973L63.2845 81.6379C64.9179 81.6461 66.2994 80.2646 66.2912 78.6312L66.1043 60.8917L66.1125 60.8998ZM62.797 10.7773L62.9757 28.3462L62.8945 28.4274L57.0924 28.4762L56.9948 10.826L62.797 10.7773ZM43.936 71.2282C40.0598 65.2392 38.1258 56.3166 38.0608 44.5499C37.9876 32.4499 39.7348 23.4704 43.2209 17.8552C45.8132 13.6215 49.4781 11.273 53.9719 10.891L54.0775 28.7119C52.1191 29.1913 50.3313 30.8165 49.1205 33.1813C47.5847 36.0336 46.8696 40.0317 46.8127 44.688C46.8371 49.4256 47.6822 53.3587 49.2506 56.2272C50.3232 58.275 52.0541 60.1685 54.2644 60.7535L54.3701 78.5743C50.2826 77.8999 46.7477 75.5026 43.9441 71.2364L43.936 71.2282ZM63.2683 78.5337L57.3849 78.5012L57.2874 60.8511L63.1708 60.8836L63.252 60.9648L63.2683 78.5337Z" fill="#C6CED6"/>
</svg>
