<svg width="88" height="91" viewBox="0 0 88 91" fill="none" xmlns="http://www.w3.org/2000/svg">
<path d="M85.523 20.5187H69.6831C68.4152 20.5187 67.3438 19.4293 67.3438 18.1793V2.33938C67.3438 1.07147 68.4331 0 69.6831 0H69.8617C70.3974 0 70.9332 0.178578 71.4868 0.714314L86.9695 16.1971C87.3267 16.5542 87.6838 17.2685 87.6838 17.8221V18.1793C87.8624 19.4472 86.791 20.5187 85.523 20.5187ZM72.0225 16.0185H80.3086L72.0225 7.55387V16.0185Z" fill="#C6CED6"/>
<path d="M19.0912 69.5027C16.0375 69.5027 13.5195 66.9848 13.5195 63.9311C13.5195 60.8774 16.0375 58.3416 19.0912 58.3416C22.1449 58.3416 24.6807 60.8595 24.6807 63.9311C24.6807 67.0027 22.1627 69.5027 19.0912 69.5027ZM19.0912 63.0204C18.5554 63.0204 18.0197 63.5561 18.0197 64.0918C18.0197 64.6276 18.5554 65.1812 19.0912 65.1812C19.6269 65.1812 20.1805 64.6454 20.1805 64.0918C20.1805 63.5382 19.6448 63.0204 19.0912 63.0204Z" fill="#C6CED6"/>
<path d="M19.0894 72.735C17.8215 72.735 16.75 71.6457 16.75 70.3957V67.1455C16.75 65.8776 17.8393 64.8062 19.0894 64.8062C20.3394 64.8062 21.4288 65.8955 21.4288 67.1455V70.3957C21.4288 71.8421 20.3394 72.735 19.0894 72.735Z" fill="#C6CED6"/>
<path d="M78.6822 90.2H24.8408C19.8049 90.2 15.8404 86.2356 15.6618 81.1996C15.6618 80.6639 15.8404 79.9317 16.3762 79.5746C16.9119 79.2174 17.4476 78.8603 18.0012 79.0388H18.8941C27.0016 79.0388 33.484 72.5564 33.484 64.449V52.3771H30.966C29.716 52.3771 28.6266 51.3056 28.6266 50.0377V46.8054C28.6266 43.7517 27.1802 41.0373 24.8408 39.073C23.0371 37.6265 21.0549 36.9122 18.7155 36.9122H17.8226C17.1083 36.9122 16.5547 36.7336 16.019 36.3764C15.4833 36.0193 15.3047 35.2871 15.3047 34.7514V9.35751C15.3047 4.3216 19.4477 0.178577 24.4836 0.178577H69.3068C70.5747 0.178577 71.6462 1.26791 71.6462 2.51796V16.0185H85.1467C86.4146 16.0185 87.4861 17.09 87.4861 18.3579V81.1996C87.8433 86.057 83.7003 90.2 78.6643 90.2H78.6822ZM20.8942 83.3604C21.6085 84.8069 23.2336 85.6998 24.8586 85.6998H78.7001C81.218 85.6998 83.3788 83.7176 83.3788 81.0211V20.5187H69.8783C68.6104 20.5187 67.5389 19.4293 67.5389 18.1793V4.67876H24.8408C22.3228 4.67876 20.162 6.66098 20.162 9.35751V32.5906C23.0371 32.7692 25.5551 33.8585 27.8945 35.6443C31.3232 38.3408 33.3054 42.4838 33.3054 46.8054V47.8769H36.0019C37.2698 47.8769 38.3413 48.9662 38.3413 50.2163V64.4311C38.3413 74.3244 30.6089 82.4318 20.8763 83.3426L20.8942 83.3604Z" fill="#C6CED6"/>
<path d="M19.09 83.539H17.8221C7.73245 82.8247 0 74.5387 0 64.449V50.2341C0 48.9662 1.07147 47.8948 2.33938 47.8948H36.0014C37.2693 47.8948 38.3408 48.9841 38.3408 50.2341V64.449C38.3408 74.8958 29.6976 83.539 19.0722 83.539H19.09ZM4.50018 52.2164V64.2704C4.50018 72.0207 10.4468 78.3067 18.1793 78.8603H19.0722C27.1796 78.8603 33.662 72.3779 33.662 64.2704V52.2164H4.50018Z" fill="#C6CED6"/>
<path d="M31.145 52.2164H7.01907C5.75116 52.2164 4.67969 51.1449 4.67969 49.877V46.6447C4.67969 42.3231 6.66191 38.1801 10.0728 35.4836C12.2336 33.6799 14.9301 32.787 17.6445 32.4299H18.9124C22.1447 32.4299 25.2162 33.5013 27.7342 35.4836C31.1629 38.1801 33.1272 42.3231 33.1272 46.6447V49.877C33.4844 51.3235 32.4129 52.2164 31.145 52.2164ZM9.35844 47.7162H28.9842V46.6447C28.9842 43.591 27.5377 40.8766 25.1984 38.8944C23.3947 37.4479 21.4125 36.7336 19.0731 36.7336H18.1802C16.3766 36.9122 14.5729 37.6265 12.9657 38.7158C10.6264 40.5195 9.17987 43.3946 9.17987 46.4661L9.35844 47.734V47.7162Z" fill="#C6CED6"/>
<path d="M49.5198 18.1793H31.5191C30.2512 18.1793 29.1797 17.09 29.1797 15.8399C29.1797 14.5899 30.2512 13.5005 31.5191 13.5005H49.5198C50.7877 13.5005 51.8592 14.5899 51.8592 15.8399C51.8592 17.09 50.7877 18.1793 49.5198 18.1793Z" fill="#C6CED6"/>
<path d="M60.8595 27.1796H31.5191C30.2512 27.1796 29.1797 26.0903 29.1797 24.8403C29.1797 23.5902 30.2512 22.5009 31.5191 22.5009H60.8595C62.1274 22.5009 63.1989 23.5902 63.1989 24.8403C63.0203 26.1082 61.931 27.1796 60.8595 27.1796Z" fill="#C6CED6"/>
</svg>
