<svg width="92" height="92" viewBox="0 0 92 92" fill="none" xmlns="http://www.w3.org/2000/svg">
<path fill-rule="evenodd" clip-rule="evenodd" d="M73.8087 52.1567C73.8087 52.0612 73.8045 51.9649 73.7976 51.8558V51.8549C74.3492 51.453 74.9177 51.075 75.4829 50.6992L75.483 50.6992L75.4831 50.6991C76.2089 50.2165 76.9295 49.7375 77.6024 49.2156L77.606 51.3016V51.302V51.3024C77.6235 61.1412 77.6423 71.7539 77.5563 81.4734C77.5094 86.7734 73.0022 91.0811 67.6929 91.0862C49.6241 91.1033 31.5561 91.1058 13.4882 91.0862C6.26325 91.0786 0.357114 85.2943 0.115855 78.0677C0.0647053 76.5331 0.77484 75.7744 2.33407 75.7599C3.7173 75.7469 5.10094 75.7499 6.52656 75.7529H6.5281L6.53517 75.753C7.16625 75.7543 7.80557 75.7557 8.45674 75.7557V74.2962L8.45674 74.2173C8.45759 50.6983 8.45844 27.1794 8.45844 3.6604C8.45844 1.4098 8.95631 0.919608 11.2376 0.919608C14.4294 0.919425 17.6212 0.919712 20.813 0.919999C32.5164 0.921052 44.22 0.922105 55.9232 0.9C57.0153 0.898295 57.8055 1.23503 58.5677 2.00314C64.3067 7.78822 70.0509 13.569 75.8667 19.2765C77.1036 20.4897 77.7933 21.6993 77.616 23.4743C77.5324 24.3131 77.5324 27.7487 77.5486 29.1911L73.7993 32.2925C73.8031 30.6298 73.8018 27.734 73.8008 25.6177C73.8005 24.8554 73.8002 24.1943 73.8002 23.7283H72.6357C70.9327 23.7283 69.2297 23.7285 67.5267 23.7287H67.5266H67.5265C64.1202 23.7291 60.7137 23.7294 57.3077 23.7283C55.3998 23.7275 54.786 23.1179 54.786 21.2117C54.7848 17.8057 54.7852 14.3992 54.7856 10.9929V10.9928V10.9927C54.7858 9.28967 54.786 7.58665 54.786 5.88373V4.72774H12.3041V75.7523H13.7951L28.7565 75.7521H28.7566H28.7568C38.7306 75.7519 48.7041 75.7517 58.6777 75.7523C60.8106 75.7523 61.3179 76.2962 61.3656 78.4104C61.3727 78.7281 61.3745 79.0483 61.3763 79.3694C61.3831 80.5921 61.3899 81.8265 61.6904 82.9764C62.4636 85.9328 65.4832 87.7077 68.5266 87.2679C71.5112 86.8365 73.7942 84.2347 73.8019 81.1307C73.8186 74.0931 73.8149 66.4718 73.8114 59.1486V59.1477V59.1468C73.8103 56.7755 73.8091 54.4355 73.8087 52.1567ZM70.6391 19.9313L58.6461 7.93314V19.9313H70.6391ZM49.571 87.3244C52.6523 87.3233 55.7336 87.3223 58.8149 87.3216V87.3224C58.9732 87.3224 59.1311 87.2989 59.3271 87.2698L59.3276 87.2697C59.4302 87.2545 59.5434 87.2376 59.6725 87.2218C57.9164 84.903 57.427 82.3591 57.589 79.5689H4.07914C4.11559 79.7062 4.14802 79.8356 4.17901 79.9592L4.17914 79.9597L4.17917 79.9599C4.24376 80.2176 4.30208 80.4503 4.37751 80.6772C5.69037 84.6234 9.29049 87.3071 13.4533 87.3139C25.4927 87.3329 37.5317 87.3287 49.571 87.3244ZM33.6115 14.0609L37.9491 14.0607C40.8408 14.0605 43.7324 14.0604 46.6241 14.0609C46.6783 14.0609 46.7325 14.0606 46.7868 14.0602C47.0335 14.0586 47.2811 14.0569 47.5235 14.0891C48.4792 14.2161 49.1544 14.9902 49.1561 15.9347C49.1578 16.8793 48.4792 17.6585 47.5295 17.7855C47.3404 17.8107 47.1473 17.8095 46.9548 17.8082L46.9045 17.8079L46.8296 17.8077L39.3048 17.808C33.0382 17.8083 26.7715 17.8086 20.5043 17.8068C18.7183 17.8068 17.8743 17.1998 17.8726 15.9415C17.8709 14.6892 18.7362 14.0643 20.4992 14.0626C23.2793 14.0605 26.0595 14.0607 28.8396 14.061H28.8429C30.4325 14.0611 32.022 14.0612 33.6115 14.0609ZM36.6826 24.5232C35.6303 24.5243 34.5779 24.5254 33.5256 24.5254V24.5245H23.4149C23.0505 24.5248 22.686 24.5227 22.3216 24.5207H22.3215H22.3215H22.3215H22.3215H22.3215H22.3214H22.3214H22.3214C21.4512 24.5158 20.581 24.5109 19.7116 24.5373C18.6716 24.5689 17.9265 25.314 17.8719 26.2875C17.8139 27.3037 18.5309 28.1383 19.5889 28.2679C19.7912 28.2921 19.9971 28.2897 20.2027 28.2872C20.2647 28.2865 20.3267 28.2858 20.3885 28.2858L24.127 28.2858C31.59 28.2859 39.053 28.286 46.516 28.2824C46.6133 28.2824 46.7156 28.2877 46.819 28.2932C47.1393 28.31 47.4697 28.3274 47.6933 28.1869C48.2218 27.8553 48.8842 27.4137 49.0309 26.8894C49.1784 26.3634 48.9337 25.5254 48.5501 25.1094C48.1912 24.7198 47.4273 24.5552 46.8391 24.5493C43.454 24.5161 40.0683 24.5196 36.6826 24.5232ZM20.6475 38.7554C28.0199 38.7579 35.3932 38.7579 42.7657 38.7579L47.2134 38.758C53.1393 38.7581 59.0653 38.7583 64.9912 38.7562C65.0526 38.7562 65.1141 38.7567 65.1758 38.7571H65.1761C65.4785 38.7593 65.7834 38.7614 66.0765 38.7119C67.1157 38.5371 67.8096 37.7324 67.773 36.7912C67.7372 35.8594 66.9691 35.1092 65.9179 35.0009C65.702 34.9785 65.4823 34.9811 65.2626 34.9838C65.1909 34.9847 65.1191 34.9856 65.0475 34.9856C50.2651 34.9856 35.4836 34.9856 20.702 34.9864C20.6174 34.9864 20.5325 34.9853 20.4476 34.9841H20.4475H20.4474C20.205 34.9809 19.9624 34.9776 19.7225 35.0009C18.7157 35.0981 17.9672 35.7938 17.8786 36.6906C17.7856 37.636 18.4259 38.4757 19.4574 38.688C19.796 38.7581 20.1559 38.7569 20.5095 38.7557C20.5556 38.7555 20.6016 38.7554 20.6475 38.7554ZM53.2891 67.4617C51.573 65.223 49.8739 63.0065 48.1544 60.7627C52.486 56.6086 56.8123 52.4586 61.1421 48.3052L61.3545 48.1015L61.3923 48.0653L67.6264 42.0852C69.2957 44.2489 70.947 46.3895 72.6213 48.5608C68.2551 52.8299 63.8929 57.0947 59.525 61.365L59.4928 61.3965L53.2891 67.4617ZM47.3947 62.0057L47.1551 62.6799L47.1548 62.6809L47.1531 62.6857C46.3205 65.0285 45.4878 67.3715 44.6616 69.7174C44.6215 69.8308 44.6053 70.0209 44.6684 70.0848C44.7366 70.1539 44.9233 70.153 45.0392 70.1181C46.4524 69.7023 47.8629 69.2794 49.2737 68.8564L50.3265 68.5409L52.2284 67.9706C51.1838 66.6205 50.1514 65.2854 49.1142 63.9442L49.0865 63.9085L49.074 63.8923L47.4706 61.819L47.4445 61.8808L47.4299 61.9149L47.4298 61.9152C47.413 61.9544 47.4024 61.9793 47.393 62.0048L47.3947 62.0057ZM88.6927 24.5851C89.309 24.2952 89.9237 24.3822 90.4429 24.8263L90.442 24.8255C91.7404 25.9354 91.9722 27.2261 91.0396 28.5901C90.8848 28.8167 90.7045 29.0253 90.5205 29.2381L90.5202 29.2384L90.5198 29.2388L90.5197 29.2389L90.5196 29.239C90.4353 29.3366 90.3502 29.435 90.2664 29.5364C90.7762 30.5466 90.5179 31.5347 90.0652 32.498C89.8751 32.9021 89.6406 33.2917 89.3798 33.654C89.2025 33.9004 89.1632 34.1408 89.188 34.4238C89.2253 34.8449 89.2571 35.2663 89.2889 35.6876C89.3101 35.9691 89.3313 36.2507 89.3542 36.532C89.3815 36.8645 89.2741 37.1475 89.0541 37.3879C88.8456 37.6167 88.64 37.8488 88.4345 38.0809C87.9467 38.6316 87.4586 39.1826 86.9297 39.6906C84.8317 41.7041 82.7186 43.7012 80.6056 45.6982L80.599 45.7044L80.5924 45.7106L80.5858 45.7168C79.8668 46.3964 79.1478 47.0759 78.4294 47.7561C78.3937 47.7901 78.3543 47.82 78.3119 47.8523C78.2925 47.867 78.2726 47.8822 78.2521 47.8984C77.929 47.6435 77.7201 47.3187 77.6468 46.9351C77.6195 46.7936 77.7124 46.5899 77.8147 46.4697C77.916 46.3506 78.0168 46.231 78.1176 46.1114C78.5723 45.572 79.0279 45.0316 79.5274 44.5362C81.0482 43.0277 82.5881 41.5383 84.1277 40.0491L84.128 40.0488L84.9459 39.2575C85.398 38.8199 85.8554 38.3878 86.3129 37.9557L86.3137 37.955L86.3148 37.9539C86.6366 37.65 86.9583 37.3461 87.2784 37.0401C87.7745 36.5661 87.8206 36.1714 87.4403 35.5286C84.7981 38.088 82.1586 40.6451 79.5165 43.2048L73.6596 48.8788C72.6609 47.5579 71.6661 46.2416 70.6712 44.9253C69.6763 43.6091 68.6815 42.2928 67.6827 40.9719L68.5348 40.1474L68.5362 40.1461L68.5379 40.1443L68.5402 40.1422L68.5496 40.1331C69.3965 39.3134 70.2324 38.5044 71.0706 37.6974L72.0317 36.7721L72.0405 36.7636C74.7358 34.1686 77.4312 31.5736 80.1327 28.984C80.6327 28.5053 81.1397 28.0338 81.6468 27.5624C82.1538 27.091 82.6608 26.6196 83.1608 26.1409C83.1608 26.1409 84.8769 24.6166 86.4838 25.9073C86.7058 26.0858 87.4727 25.4923 88.0593 25.0385L88.0594 25.0384C88.3358 24.8245 88.5723 24.6416 88.6927 24.5851ZM85.5222 27.1451C85.6637 27.1409 85.8035 27.175 85.9229 27.2508C86.0397 27.3293 86.1309 27.4554 86.1658 27.6021C86.1556 27.452 86.0849 27.3037 85.9681 27.1937C85.8479 27.0889 85.6893 27.0283 85.5316 27.0113C85.3739 26.9917 85.2145 27.0019 85.061 27.0283C84.9067 27.0531 84.7584 27.0957 84.6092 27.14C84.0252 27.3421 83.4873 27.6379 82.9758 27.9644C81.9502 28.6174 81.0201 29.3932 80.1182 30.192C79.674 30.5986 79.2342 31.0095 78.8054 31.4315C78.6311 31.6022 78.4609 31.7764 78.2904 31.9506L78.2903 31.9508L78.2902 31.9509L78.2899 31.9512L78.2895 31.9516L78.1711 32.0726C77.9597 32.2866 77.7508 32.5023 77.5479 32.7248C76.7227 33.5986 75.9375 34.509 75.1907 35.4519C75.8223 34.8841 76.436 34.3015 77.049 33.7196L77.0493 33.7192L77.0497 33.7189L77.05 33.7186C77.3055 33.476 77.5608 33.2336 77.8173 32.9924C77.9915 32.8298 78.1644 32.6658 78.3372 32.5018L78.3377 32.5013L78.3382 32.5008L78.3387 32.5003C78.5992 32.2531 78.8595 32.0061 79.1242 31.764C79.559 31.3548 79.998 30.9498 80.443 30.5534C80.8846 30.1528 81.3322 29.7598 81.79 29.3795C82.2418 28.9908 82.7124 28.6293 83.1881 28.2773C83.668 27.9328 84.1616 27.6038 84.6936 27.3617C84.9596 27.2466 85.2392 27.1485 85.5222 27.1451ZM33.3087 70.6173L33.3083 70.6175C32.4232 71.2127 31.5769 71.7817 30.7035 72.2655C29.9814 72.6653 29.1647 73.0123 28.4 72.9816C27.0974 72.9288 26.7785 71.8538 27.591 70.5187C28.021 69.8112 28.4855 69.1401 28.989 68.4129L28.9891 68.4129L28.9891 68.4128L28.9913 68.4096L28.992 68.4086C29.2252 68.0717 29.4668 67.7228 29.7171 67.3525C29.5992 67.4152 29.4946 67.4692 29.3993 67.5185C29.2156 67.6136 29.066 67.6909 28.92 67.7779C28.3622 68.1088 27.8063 68.4458 27.2503 68.7828C26.0143 69.5319 24.7783 70.2811 23.5211 70.9637C22.4299 71.5562 21.2884 72.0345 20.1375 72.3738C19.0336 72.6994 18.1597 72.2058 17.9338 71.4053C17.7173 70.6406 18.1512 69.4054 19.1367 68.7788C19.9331 68.2723 20.8053 67.9669 21.6722 67.6633C21.8734 67.5928 22.0743 67.5225 22.2739 67.4497C22.3824 67.4101 22.5261 67.5405 22.6699 67.671L22.67 67.6711C22.7363 67.7313 22.8026 67.7915 22.8656 67.8351C22.813 67.8965 22.7625 67.9653 22.712 68.0341L22.712 68.0342L22.7119 68.0342C22.5979 68.1896 22.4838 68.345 22.3455 68.4165C22.214 68.4847 22.0672 68.5051 21.9209 68.5255C21.7599 68.5479 21.5995 68.5703 21.4606 68.656C20.8059 69.0601 20.1512 69.4881 19.5578 70.0243C19.4056 70.1618 19.3334 70.4534 19.2612 70.7451C19.2282 70.8782 19.1952 71.0114 19.1546 71.13C19.2495 71.1506 19.3472 71.1846 19.445 71.2187C19.6591 71.2934 19.8733 71.368 20.0583 71.3013C20.9321 70.9868 21.8059 70.6347 22.6379 70.1667C23.6188 69.6153 24.5915 69.0387 25.5642 68.4621L25.5646 68.4619L25.5651 68.4616C26.5516 67.8768 27.5381 67.292 28.533 66.7336C29.0291 66.4549 29.6012 66.3099 30.14 66.3057C30.4264 66.3031 30.8629 66.6586 30.9584 66.9902C31.047 67.2971 30.8424 67.8658 30.6421 68.1803C30.2727 68.7615 29.8777 69.3141 29.4827 69.8668L29.4827 69.8669C29.2368 70.2109 28.9909 70.5549 28.7512 70.9058C28.6395 71.0696 28.5526 71.2636 28.4658 71.4573C28.4262 71.5459 28.3866 71.6344 28.3446 71.7199C28.3616 71.7753 28.3784 71.8306 28.3952 71.8859C28.4121 71.9414 28.429 71.9969 28.446 72.0524C28.5721 72.0137 28.7013 71.9836 28.8305 71.9534C29.1118 71.8876 29.3932 71.8218 29.6438 71.6688C30.2535 71.2961 30.853 70.8948 31.4527 70.4933C31.912 70.1858 32.3715 69.8783 32.8356 69.5835C33.197 69.3542 33.5849 69.1658 33.9771 69.0618C35.2516 68.7234 35.7093 69.2298 35.7682 71.1888C36.2408 71.1466 36.7132 71.1061 37.1855 71.0657H37.1855H37.1856H37.1857C38.2672 70.9732 39.3478 70.8807 40.4271 70.7668C40.9782 70.7089 41.5276 70.6253 42.0771 70.5417C42.4822 70.48 42.8873 70.4184 43.2932 70.367C43.5924 70.3286 43.907 70.3022 44.196 70.3849C44.3242 70.4219 44.4357 70.5587 44.5474 70.6957C44.5977 70.7574 44.648 70.819 44.6998 70.8717C44.6502 70.9296 44.6019 70.9999 44.5537 71.0702L44.5536 71.0704C44.4476 71.2247 44.3416 71.3791 44.2216 71.4019C43.8997 71.4623 43.5734 71.4774 43.2466 71.4925C43.0246 71.5027 42.8024 71.513 42.5814 71.5375C41.7714 71.6269 40.9618 71.7212 40.1521 71.8155L40.1502 71.8158C39.1223 71.9355 38.0944 72.0553 37.0657 72.1649C36.6897 72.205 36.3061 72.1777 35.9301 72.13C34.706 71.974 34.5065 71.6901 34.4758 69.8427L34.4741 69.8419C34.075 70.102 33.6883 70.3621 33.3087 70.6173ZM61.2523 45.4134H61.2505L61.2515 45.4125L61.2523 45.4134ZM54.9962 45.4037L54.992 45.4037L54.9871 45.4037C51.5786 45.3977 47.9261 45.3912 45.6814 45.3912C43.0548 45.3912 40.4286 45.4033 37.8022 45.4153H37.8021C35.8475 45.4243 33.8929 45.4333 31.9382 45.4373C30.2836 45.4405 28.6289 45.4389 26.9742 45.4374H26.9722C24.646 45.4353 22.3197 45.4331 19.9938 45.4441C18.5897 45.4509 17.8472 46.1841 17.894 47.4091C17.9367 48.5182 18.6349 49.1857 19.8471 49.1908C22.3659 49.2023 24.8846 49.2033 27.4034 49.2043H27.412C28.8366 49.2048 30.2612 49.2054 31.6858 49.2079C34.9257 49.2137 39.0141 49.2199 43.1784 49.2262L43.2071 49.2262C48.1788 49.2337 53.2559 49.2414 57.1236 49.2488L61.2505 45.4134C59.6709 45.412 57.3943 45.408 54.9962 45.4037ZM50.4628 55.8992C50.4632 55.8992 50.4635 55.8992 50.4638 55.8992V55.8983L50.4628 55.8992ZM45.7596 55.8895C47.5628 55.8937 49.275 55.8978 50.4628 55.8992L46.3717 59.7244C43.6023 59.7173 40.2741 59.7127 36.9661 59.7082C33.8894 59.704 30.8302 59.6998 28.2544 59.6937C27.1821 59.6912 26.1098 59.6906 25.0374 59.6901C23.1452 59.689 21.253 59.688 19.3611 59.6766C18.4506 59.6715 17.9263 59.004 17.8939 57.8949C17.8581 56.6698 18.4156 55.9367 19.471 55.9299C21.2187 55.9189 22.9668 55.9211 24.7147 55.9232C25.9577 55.9247 27.2008 55.9262 28.4436 55.923C29.9121 55.919 31.3804 55.9101 32.8486 55.9011C34.8215 55.8891 36.7943 55.877 38.7674 55.877C40.4537 55.877 43.1984 55.8835 45.7596 55.8895Z" fill="#C6CED6"/>
</svg>
