<svg width="18" height="23" viewBox="0 0 18 23" fill="none" xmlns="http://www.w3.org/2000/svg">
<path d="M7.7386 22.536C1.21154 13.0737 0 12.1025 0 8.625C0 3.86153 3.86153 0 8.625 0C13.3885 0 17.25 3.86153 17.25 8.625C17.25 12.1025 16.0385 13.0737 9.5114 22.536C9.08307 23.1547 8.16689 23.1547 7.7386 22.536ZM8.625 12.2187C10.6098 12.2187 12.2187 10.6098 12.2187 8.625C12.2187 6.64022 10.6098 5.03125 8.625 5.03125C6.64022 5.03125 5.03125 6.64022 5.03125 8.625C5.03125 10.6098 6.64022 12.2187 8.625 12.2187Z" fill="#A870AC"/>
</svg>
