<svg width="21" height="21" viewBox="0 0 21 21" fill="none" xmlns="http://www.w3.org/2000/svg">
<path d="M10.065 0C4.5025 0 0 4.50161 0 10.065C0 15.6275 4.50161 20.13 10.065 20.13C12.0193 20.13 13.9344 19.5561 15.5605 18.4976C16.0477 18.1804 16.154 17.5118 15.7858 17.062L15.3728 16.5574C15.0615 16.1771 14.5132 16.0839 14.0995 16.3493C12.9027 17.1169 11.4982 17.5326 10.065 17.5326C5.94736 17.5326 2.59742 14.1826 2.59742 10.065C2.59742 5.94736 5.94736 2.59742 10.065 2.59742C14.1291 2.59742 17.5326 4.93587 17.5326 9.09097C17.5326 10.6651 16.6765 12.3273 15.1718 12.4876C14.4677 12.4692 14.4855 11.9658 14.6249 11.2691L15.5759 6.3539C15.6922 5.75288 15.2318 5.19484 14.6196 5.19484H12.7941C12.6593 5.19484 12.5292 5.24445 12.4287 5.33423C12.3281 5.424 12.2641 5.54764 12.2489 5.68157L12.2485 5.6853C11.6521 4.9588 10.607 4.80157 9.81463 4.80157C6.78783 4.80157 4.22081 7.32732 4.22081 10.9485C4.22081 13.5988 5.71371 15.2452 8.11693 15.2452C9.21207 15.2452 10.4452 14.6106 11.1604 13.6895C11.5469 15.0736 12.8087 15.0736 14.0302 15.0736C18.4502 15.0736 20.13 12.1672 20.13 9.09097C20.13 3.55737 15.6666 0 10.065 0ZM9.18512 12.3552C8.28216 12.3552 7.72123 11.7211 7.72123 10.7005C7.72123 8.87449 8.97039 7.74883 10.1007 7.74883C11.0054 7.74883 11.5456 8.36738 11.5456 9.40347C11.5456 11.2323 10.1708 12.3552 9.18512 12.3552Z" fill="#A870AC"/>
</svg>
