<svg width="12" height="12" viewBox="0 0 12 12" fill="none" xmlns="http://www.w3.org/2000/svg">
<path d="M5.10211 0.783395L5.69669 0.188818C5.94844 -0.0629394 6.35554 -0.0629394 6.60462 0.188818L11.8112 5.3927C12.0629 5.64446 12.0629 6.05156 11.8112 6.30064L6.60462 11.5072C6.35286 11.759 5.94577 11.759 5.69669 11.5072L5.10211 10.9126C4.84767 10.6582 4.85303 10.2431 5.11282 9.99397L8.34014 6.91932H0.642785C0.286575 6.91932 0 6.63274 0 6.27653V5.41948C0 5.06327 0.286575 4.7767 0.642785 4.7767H8.34014L5.11282 1.70204C4.85035 1.45296 4.845 1.03783 5.10211 0.783395Z" fill="#FBB845"/>
</svg>
