<svg width="82" height="91" viewBox="0 0 82 91" fill="none" xmlns="http://www.w3.org/2000/svg">
<path d="M52.9087 80.8076H41.8093C40.6936 80.8076 39.7891 81.7121 39.7891 82.8279C39.7891 83.9436 40.6936 84.8481 41.8093 84.8481H52.9087C54.0245 84.8481 54.929 83.9436 54.929 82.8279C54.929 81.7121 54.0245 80.8076 52.9087 80.8076Z" fill="#C6CED6"/>
<path d="M28.9809 75.4563C24.9162 75.4563 21.6094 78.7631 21.6094 82.8278C21.6094 86.8926 24.9162 90.1994 28.9809 90.1994C33.0457 90.1994 36.3525 86.8926 36.3525 82.8278C36.3525 78.7631 33.0457 75.4563 28.9809 75.4563ZM28.9809 86.1581C27.1441 86.1581 25.6499 84.6639 25.6499 82.827C25.6499 80.9902 27.1441 79.496 28.9809 79.496C30.8178 79.496 32.312 80.9902 32.312 82.827C32.312 84.6639 30.8178 86.1581 28.9809 86.1581Z" fill="#C6CED6"/>
<path d="M65.6255 75.4563C61.5607 75.4563 58.2539 78.7631 58.2539 82.8278C58.2539 86.8926 61.5607 90.1994 65.6255 90.1994C69.6903 90.1994 72.997 86.8926 72.997 82.8278C72.997 78.7631 69.6903 75.4563 65.6255 75.4563ZM65.6255 86.1581C63.7886 86.1581 62.2944 84.6639 62.2944 82.827C62.2944 80.9902 63.7886 79.496 65.6255 79.496C67.4623 79.496 68.9565 80.9902 68.9565 82.827C68.9565 84.6639 67.4623 86.1581 65.6255 86.1581Z" fill="#C6CED6"/>
<path d="M77.9933 18.9194H70.5531C70.0537 14.1128 67.9405 9.65689 64.4761 6.19253C60.4824 2.19967 55.1732 0 49.5253 0C43.8774 0 38.5681 2.19967 34.5745 6.19253C31.1101 9.65689 28.9969 14.112 28.4975 18.9194H18.721L17.281 10.7187C17.2018 10.2654 16.9723 9.87104 16.6523 9.58012C16.6369 9.56558 16.6215 9.55184 16.6062 9.5381C16.5997 9.53244 16.5933 9.52679 16.586 9.52113C16.4058 9.36597 16.1949 9.23991 15.9565 9.15344L2.69623 4.36378C1.77741 4.03165 0.752729 4.40823 0.267056 5.25594C-0.354379 6.34042 0.153113 7.7239 1.32972 8.14815L13.5184 12.5491L14.6368 18.9186H14.6255C14.6312 18.9509 14.6368 18.9833 14.6425 19.0156C14.6587 19.1101 14.6756 19.2047 14.6918 19.2984C14.7185 19.4512 14.7451 19.6031 14.7718 19.7558C14.8082 19.9627 14.8445 20.1696 14.8809 20.3764C14.9261 20.6334 14.9714 20.8912 15.0166 21.1482C15.07 21.452 15.1233 21.7559 15.1767 22.0597C15.2373 22.4064 15.2987 22.7531 15.3593 23.0998L15.5621 24.257C15.6357 24.678 15.71 25.0982 15.7835 25.5192C15.8627 25.971 15.9419 26.4235 16.0219 26.8753C16.106 27.3545 16.19 27.8345 16.2741 28.3137C16.3621 28.8163 16.451 29.3198 16.5391 29.8224C16.6312 30.3453 16.7226 30.8681 16.8147 31.3902C16.9092 31.9284 17.0038 32.4674 17.0983 33.0056C17.1953 33.5559 17.2915 34.107 17.3884 34.6573C17.4862 35.2157 17.5848 35.7749 17.6826 36.3334C17.7812 36.8966 17.8806 37.4599 17.9792 38.0231C18.0778 38.5872 18.1772 39.1504 18.2757 39.7137C18.3743 40.2737 18.4721 40.8345 18.5707 41.3945C18.6677 41.9473 18.7647 42.5008 18.8616 43.0536C18.957 43.5958 19.0523 44.1381 19.1469 44.6795C19.2398 45.2064 19.3319 45.7341 19.4249 46.261C19.5138 46.7693 19.6035 47.2776 19.6924 47.7867C19.778 48.2723 19.8629 48.7588 19.9485 49.2445C20.0293 49.7043 20.1102 50.1633 20.1902 50.6231C20.2653 51.0522 20.3413 51.4813 20.4164 51.9113C20.4859 52.3064 20.5554 52.7016 20.6249 53.0967C20.6879 53.4539 20.7502 53.8111 20.8132 54.1683L20.9797 55.1146C21.0274 55.3845 21.0742 55.6544 21.1219 55.9243C21.1607 56.1449 21.1995 56.3647 21.2383 56.5853C21.3013 56.9466 21.4039 57.3361 21.3999 57.7038C20.8455 57.8193 20.3049 57.9486 19.778 58.1604C19.2932 58.3551 18.8293 58.6016 18.3986 58.8965C17.9864 59.1786 17.605 59.505 17.2624 59.8679C16.9262 60.2235 16.6272 60.613 16.3694 61.0283C16.1124 61.4413 15.8959 61.8793 15.7197 62.3326C15.5435 62.7868 15.4078 63.2571 15.3132 63.7355C15.2179 64.2147 15.1637 64.7028 15.15 65.1917C15.1362 65.6806 15.1629 66.1711 15.23 66.6552C15.2971 67.1384 15.4045 67.616 15.5532 68.0815C15.7011 68.5445 15.8902 68.9955 16.1197 69.4246C16.35 69.8545 16.6207 70.2626 16.9294 70.6392C17.243 71.0214 17.5961 71.3713 17.9824 71.68C18.3832 72 18.8188 72.2756 19.2794 72.5018C19.7707 72.7435 20.2887 72.9285 20.8197 73.0594C21.4031 73.2033 22.0027 73.2825 22.6032 73.3067C22.6702 73.3092 22.7373 73.3116 22.8044 73.3132V73.3156H73.6489C74.7649 73.3156 75.6692 72.4113 75.6692 71.2953C75.6692 70.1793 74.7649 69.2751 73.6489 69.2751H23.0169C17.9081 69.2751 17.9081 61.6118 23.0169 61.6118H71.9042C73.8493 61.6118 75.5132 60.2146 75.8494 58.2985L81.9385 23.6153C82.3692 21.1635 80.4823 18.917 77.9933 18.917V18.9194ZM49.5253 4.04054C58.9559 4.04054 66.6281 11.7127 66.6281 21.1433C66.6281 30.574 58.9559 38.2461 49.5253 38.2461C40.0947 38.2461 32.4225 30.574 32.4225 21.1433C32.4225 11.7127 40.0947 4.04054 49.5253 4.04054ZM71.8743 57.5729H25.5132L19.437 22.96H28.4603C28.8797 27.9226 31.0131 32.532 34.5753 36.0942C38.569 40.0878 43.8782 42.2867 49.5261 42.2867C55.174 42.2867 60.4832 40.087 64.4769 36.0942C68.039 32.532 70.1724 27.9226 70.5919 22.96H77.9521L71.8759 57.5729H71.8743Z" fill="#C6CED6"/>
<path d="M44.6718 30.7663L44.8157 30.7897L44.8537 30.8132L45.0977 30.8301C45.1446 30.8334 45.1923 30.835 45.2391 30.835C45.7919 30.835 46.3204 30.6136 46.6913 30.2281L61.5363 14.7569C61.8692 14.4094 62.0518 13.9576 62.0518 13.4841C62.0518 12.9507 61.8288 12.4594 61.4231 12.1006C61.0595 11.779 60.5851 11.602 60.0865 11.602C59.5338 11.602 59.0045 11.8234 58.6343 12.2089L45.5115 25.8853L40.6749 17.8446C40.325 17.2628 39.6689 16.9016 38.9618 16.9016C38.6175 16.9016 38.2781 16.9889 37.9807 17.1537C37.5217 17.4083 37.1952 17.8212 37.0627 18.3166C36.9342 18.7966 37.0045 19.296 37.2615 19.7219L43.3603 29.862C43.6407 30.3283 44.1191 30.658 44.6735 30.7655L44.6718 30.7663Z" fill="#C6CED6"/>
</svg>
