<svg width="24" height="27" viewBox="0 0 24 27" fill="none" xmlns="http://www.w3.org/2000/svg">
<path d="M22.2891 24.4375H21.3125V2.17188C21.3125 1.52466 20.7878 1 20.1406 1H3.73438C3.08716 1 2.5625 1.52466 2.5625 2.17188V24.4375H1.58594C1.26235 24.4375 1 24.6999 1 25.0234V26H22.875V25.0234C22.875 24.6999 22.6126 24.4375 22.2891 24.4375ZM7.25 4.71094C7.25 4.38735 7.51235 4.125 7.83594 4.125H9.78906C10.1126 4.125 10.375 4.38735 10.375 4.71094V6.66406C10.375 6.98765 10.1126 7.25 9.78906 7.25H7.83594C7.51235 7.25 7.25 6.98765 7.25 6.66406V4.71094ZM7.25 9.39844C7.25 9.07485 7.51235 8.8125 7.83594 8.8125H9.78906C10.1126 8.8125 10.375 9.07485 10.375 9.39844V11.3516C10.375 11.6751 10.1126 11.9375 9.78906 11.9375H7.83594C7.51235 11.9375 7.25 11.6751 7.25 11.3516V9.39844ZM9.78906 16.625H7.83594C7.51235 16.625 7.25 16.3626 7.25 16.0391V14.0859C7.25 13.7624 7.51235 13.5 7.83594 13.5H9.78906C10.1126 13.5 10.375 13.7624 10.375 14.0859V16.0391C10.375 16.3626 10.1126 16.625 9.78906 16.625ZM13.5 24.4375H10.375V20.3359C10.375 20.0124 10.6374 19.75 10.9609 19.75H12.9141C13.2376 19.75 13.5 20.0124 13.5 20.3359V24.4375ZM16.625 16.0391C16.625 16.3626 16.3626 16.625 16.0391 16.625H14.0859C13.7624 16.625 13.5 16.3626 13.5 16.0391V14.0859C13.5 13.7624 13.7624 13.5 14.0859 13.5H16.0391C16.3626 13.5 16.625 13.7624 16.625 14.0859V16.0391ZM16.625 11.3516C16.625 11.6751 16.3626 11.9375 16.0391 11.9375H14.0859C13.7624 11.9375 13.5 11.6751 13.5 11.3516V9.39844C13.5 9.07485 13.7624 8.8125 14.0859 8.8125H16.0391C16.3626 8.8125 16.625 9.07485 16.625 9.39844V11.3516ZM16.625 6.66406C16.625 6.98765 16.3626 7.25 16.0391 7.25H14.0859C13.7624 7.25 13.5 6.98765 13.5 6.66406V4.71094C13.5 4.38735 13.7624 4.125 14.0859 4.125H16.0391C16.3626 4.125 16.625 4.38735 16.625 4.71094V6.66406Z" stroke="#808080" stroke-opacity="0.7" stroke-width="1.2"/>
</svg>
