<svg width="25" height="19" viewBox="0 0 25 19" fill="none" xmlns="http://www.w3.org/2000/svg">
<mask id="path-1-inside-1_776_871" fill="white">
<path d="M24.5264 6.19141C24.7168 6.04004 25 6.18164 25 6.4209V16.4062C25 17.7002 23.9502 18.75 22.6562 18.75H2.34375C1.0498 18.75 0 17.7002 0 16.4062V6.42578C0 6.18164 0.27832 6.04492 0.473633 6.19629C1.56738 7.0459 3.01758 8.125 7.99805 11.7432C9.02832 12.4951 10.7666 14.0771 12.5 14.0674C14.2432 14.082 16.0156 12.4658 17.0068 11.7432C21.9873 8.125 23.4326 7.04102 24.5264 6.19141ZM12.5 12.5C13.6328 12.5195 15.2637 11.0742 16.084 10.4785C22.5635 5.77637 23.0566 5.36621 24.5508 4.19434C24.834 3.97461 25 3.63281 25 3.27148V2.34375C25 1.0498 23.9502 0 22.6562 0H2.34375C1.0498 0 0 1.0498 0 2.34375V3.27148C0 3.63281 0.166016 3.96973 0.449219 4.19434C1.94336 5.36133 2.43652 5.77637 8.91602 10.4785C9.73633 11.0742 11.3672 12.5195 12.5 12.5Z"/>
</mask>
<path d="M24.5264 6.19141L25.2626 7.13914L25.2731 7.13079L24.5264 6.19141ZM0.473633 6.19629L1.20978 5.24861L1.20872 5.24779L0.473633 6.19629ZM7.99805 11.7432L8.70549 10.7739L8.70334 10.7723L7.99805 11.7432ZM12.5 14.0674L12.5101 12.8674L12.5017 12.8674L12.4932 12.8674L12.5 14.0674ZM17.0068 11.7432L16.3015 10.7723L16.2999 10.7735L17.0068 11.7432ZM12.5 12.5L12.5207 11.3002L12.5 11.2998L12.4793 11.3002L12.5 12.5ZM16.084 10.4785L15.3792 9.50731L15.3789 9.50753L16.084 10.4785ZM24.5508 4.19434L23.8152 3.24622L23.8102 3.25011L24.5508 4.19434ZM2.34375 0V1.2V0ZM0.449219 4.19434L-0.296476 5.13456L-0.289434 5.14006L0.449219 4.19434ZM8.91602 10.4785L9.62113 9.50753L9.62082 9.50731L8.91602 10.4785ZM25.2731 7.13079C24.6591 7.61881 23.8 7.16295 23.8 6.4209H26.2C26.2 5.20034 24.7745 4.46127 23.7797 5.25202L25.2731 7.13079ZM23.8 6.4209V16.4062H26.2V6.4209H23.8ZM23.8 16.4062C23.8 17.0375 23.2875 17.55 22.6562 17.55V19.95C24.6129 19.95 26.2 18.3629 26.2 16.4062H23.8ZM22.6562 17.55H2.34375V19.95H22.6562V17.55ZM2.34375 17.55C1.71255 17.55 1.2 17.0375 1.2 16.4062H-1.2C-1.2 18.3629 0.387063 19.95 2.34375 19.95V17.55ZM1.2 16.4062V6.42578H-1.2V16.4062H1.2ZM1.2 6.42578C1.2 7.18848 0.324468 7.59888 -0.261453 7.14479L1.20872 5.24779C0.232173 4.49097 -1.2 5.17481 -1.2 6.42578H1.2ZM-0.26251 7.14397C0.849225 8.00755 2.31554 9.09822 7.29275 12.714L8.70334 10.7723C3.71961 7.15178 2.28554 6.08425 1.20978 5.24861L-0.26251 7.14397ZM7.2906 12.7125C7.70677 13.0162 8.52662 13.6935 9.34864 14.2081C10.1891 14.7342 11.2952 15.2742 12.5068 15.2674L12.4932 12.8674C11.9714 12.8703 11.3417 12.6242 10.6221 12.1738C9.88403 11.7118 9.3196 11.2221 8.70549 10.7739L7.2906 12.7125ZM12.4899 15.2673C13.7106 15.2776 14.8302 14.7272 15.6732 14.1982C16.4976 13.6809 17.3219 12.9985 17.7138 12.7128L16.2999 10.7735C15.7006 11.2105 15.143 11.6975 14.3976 12.1653C13.6708 12.6214 13.0326 12.8718 12.5101 12.8674L12.4899 15.2673ZM17.7121 12.714C22.6917 9.09652 24.1516 8.00204 25.2625 7.13908L23.7902 5.24373C22.7137 6.07999 21.2829 7.15348 16.3015 10.7723L17.7121 12.714ZM12.4793 13.6998C13.0055 13.7089 13.5011 13.5514 13.9031 13.3757C14.3167 13.1949 14.717 12.9563 15.0735 12.7193C15.7322 12.2814 16.4917 11.6655 16.7891 11.4495L15.3789 9.50753C14.8559 9.88728 14.3899 10.2918 13.7448 10.7206C13.4496 10.917 13.1784 11.0732 12.9419 11.1766C12.694 11.285 12.5609 11.3009 12.5207 11.3002L12.4793 13.6998ZM16.7888 11.4497C23.2734 6.74386 23.7802 6.32376 25.2913 5.13856L23.8102 3.25011C22.3331 4.40866 21.8535 4.80888 15.3792 9.50731L16.7888 11.4497ZM25.2864 5.14244C25.8663 4.69247 26.2 3.99881 26.2 3.27148H23.8C23.8 3.26821 23.8007 3.26468 23.8025 3.26105C23.8043 3.25736 23.8081 3.25174 23.8152 3.24623L25.2864 5.14244ZM26.2 3.27148V2.34375H23.8V3.27148H26.2ZM26.2 2.34375C26.2 0.387063 24.6129 -1.2 22.6562 -1.2V1.2C23.2875 1.2 23.8 1.71255 23.8 2.34375H26.2ZM22.6562 -1.2H2.34375V1.2H22.6562V-1.2ZM2.34375 -1.2C0.387063 -1.2 -1.2 0.387063 -1.2 2.34375H1.2C1.2 1.71255 1.71255 1.2 2.34375 1.2V-1.2ZM-1.2 2.34375V3.27148H1.2V2.34375H-1.2ZM-1.2 3.27148C-1.2 4.0065 -0.860842 4.68692 -0.296455 5.13453L1.19489 3.25414C1.1931 3.25272 1.19468 3.25347 1.19669 3.25758C1.19764 3.25951 1.19852 3.26189 1.19914 3.26458C1.19978 3.26732 1.2 3.26975 1.2 3.27148H-1.2ZM-0.289434 5.14006C1.21972 6.31877 1.72512 6.74279 8.21121 11.4497L9.62082 9.50731C3.14793 4.80995 2.667 4.40388 1.18787 3.24861L-0.289434 5.14006ZM8.2109 11.4495C8.50828 11.6655 9.26784 12.2814 9.92648 12.7193C10.283 12.9563 10.6833 13.1949 11.0969 13.3757C11.4989 13.5514 11.9945 13.7089 12.5207 13.6998L12.4793 11.3002C12.4391 11.3009 12.306 11.285 12.0581 11.1766C11.8216 11.0732 11.5504 10.917 11.2552 10.7206C10.6101 10.2918 10.1441 9.88728 9.62113 9.50753L8.2109 11.4495Z" fill="#808080" fill-opacity="0.7" mask="url(#path-1-inside-1_776_871)"/>
</svg>
