<svg width="10" height="9" viewBox="0 0 10 9" fill="none" xmlns="http://www.w3.org/2000/svg">
<path d="M3.92604 0.602817L4.38356 0.145294C4.57728 -0.0484314 4.89054 -0.0484314 5.08221 0.145294L9.08862 4.14965C9.28234 4.34337 9.28234 4.65663 9.08862 4.84829L5.08221 8.85471C4.88848 9.04843 4.57522 9.04843 4.38356 8.85471L3.92604 8.39718C3.73025 8.2014 3.73437 7.88196 3.93428 7.69029L6.41768 5.32436H0.494619C0.220518 5.32436 0 5.10385 0 4.82975V4.17025C0 3.89615 0.220518 3.67564 0.494619 3.67564H6.41768L3.93428 1.30971C3.73231 1.11804 3.72819 0.798603 3.92604 0.602817Z" fill="#A870AC"/>
</svg>
