<svg width="16" height="16" viewBox="0 0 16 16" fill="none" xmlns="http://www.w3.org/2000/svg">
<path d="M11.7006 4.0413C10.6922 3.09704 9.38348 2.57943 7.9951 2.58065C5.49645 2.58285 3.33935 4.29607 2.74377 6.67259C2.70042 6.84559 2.54629 6.96775 2.36794 6.96775H0.519452C0.277581 6.96775 0.0938387 6.74817 0.138581 6.51046C0.836548 2.80401 4.09074 7.62939e-06 8 7.62939e-06C10.1435 7.62939e-06 12.09 0.843104 13.5263 2.21565L14.6784 1.06356C15.1661 0.575846 16 0.921266 16 1.61101V5.93549C16 6.36307 15.6534 6.70968 15.2258 6.70968H10.9013C10.2116 6.70968 9.86616 5.87578 10.3539 5.38804L11.7006 4.0413ZM0.774194 9.29033H5.09868C5.78842 9.29033 6.13384 10.1242 5.64613 10.612L4.29935 11.9587C5.30781 12.903 6.61661 13.4207 8.00503 13.4194C10.5024 13.4171 12.6604 11.7051 13.2562 9.32749C13.2996 9.15449 13.4537 9.03233 13.6321 9.03233H15.4806C15.7225 9.03233 15.9062 9.25191 15.8615 9.48962C15.1635 13.196 11.9093 16 8 16C5.85652 16 3.90997 15.1569 2.47371 13.7844L1.32161 14.9365C0.833903 15.4242 0 15.0787 0 14.389V10.0645C0 9.63694 0.346613 9.29033 0.774194 9.29033Z" fill="#9A9A9A"/>
</svg>
