<svg width="14" height="16" viewBox="0 0 14 16" fill="none" xmlns="http://www.w3.org/2000/svg">
<path fill-rule="evenodd" clip-rule="evenodd" d="M7 8C7.79112 8 8.56448 7.7654 9.22228 7.32588C9.88008 6.88635 10.3928 6.26164 10.6955 5.53074C10.9983 4.79983 11.0775 3.99556 10.9231 3.21964C10.7688 2.44372 10.3878 1.73098 9.82843 1.17157C9.26902 0.612165 8.55628 0.231202 7.78036 0.0768607C7.00444 -0.0774802 6.20017 0.00173314 5.46927 0.304484C4.73836 0.607234 4.11365 1.11992 3.67412 1.77772C3.2346 2.43552 3 3.20888 3 4C3 5.06087 3.42143 6.07828 4.17157 6.82843C4.92172 7.57857 5.93913 8 7 8ZM9.8 9H9.2782C8.56391 9.3294 7.78668 9.49997 7.0001 9.49997C6.21352 9.49997 5.43629 9.3294 4.722 9H4.2C3.08619 9.00032 2.01809 9.44292 1.2305 10.2305C0.442919 11.0181 0.000318096 12.0862 0 13.2V14.5C0 14.8978 0.158035 15.2794 0.43934 15.5607C0.720644 15.842 1.10218 16 1.5 16H12.5C12.8978 16 13.2794 15.842 13.5607 15.5607C13.842 15.2794 14 14.8978 14 14.5V13.2C13.9997 12.0862 13.5571 11.0181 12.7695 10.2305C11.9819 9.44292 10.9138 9.00032 9.8 9Z" fill="white"/>
</svg>
