<svg width="18" height="16" viewBox="0 0 18 16" fill="none" xmlns="http://www.w3.org/2000/svg">
<path d="M10.0519 1.90302L10.0516 1.90325L9.35907 2.61691L9.00026 2.98666L8.64144 2.61691L7.94888 1.90325L7.9483 1.90266C6.34526 0.245337 3.77488 0.00656002 2.07226 1.45724L10.0519 1.90302ZM10.0519 1.90302C11.6587 0.245047 14.2258 0.00672764 15.9283 1.45724C17.9134 3.15157 18.0196 6.19953 16.2383 8.03782L16.2382 8.03793M10.0519 1.90302L16.2382 8.03793M16.2382 8.03793L9.4357 15.0619C9.43567 15.0619 9.43563 15.062 9.4356 15.062C9.19264 15.3126 8.80436 15.3126 8.5614 15.062C8.56137 15.062 8.56133 15.0619 8.5613 15.0619L1.759 8.03814M16.2382 8.03793L1.759 8.03814M1.759 8.03814C-0.0191795 6.19984 0.0870618 3.1517 2.07217 1.45731L1.759 8.03814Z" fill="white" stroke="#F9B545"/>
</svg>
