<svg width="22" height="16" viewBox="0 0 22 16" fill="none" xmlns="http://www.w3.org/2000/svg">
<path d="M10.6667 7.62939e-06C4.58583 7.62939e-06 0 2.57959 0 6.00001V10.0888C0 13.3533 4.77583 16 10.6667 16C16.5575 16 21.3333 13.3533 21.3333 10.0888V6.00001C21.3333 2.57959 16.7475 7.62939e-06 10.6667 7.62939e-06ZM10.6667 2.66667C15.085 2.66667 18.6667 4.15917 18.6667 6.00001C18.6667 6.38584 18.5013 6.75501 18.2121 7.09959C16.3396 6.00876 13.6763 5.33334 10.6667 5.33334C7.65708 5.33334 4.99375 6.00876 3.12125 7.09959C2.83208 6.75501 2.66667 6.38584 2.66667 6.00001C2.66667 4.15917 6.24833 2.66667 10.6667 2.66667ZM5.01792 8.36001C6.46 7.74709 8.40167 7.33334 10.6667 7.33334C12.9317 7.33334 14.8733 7.74709 16.3154 8.36001C14.8683 8.96126 12.8721 9.33334 10.6667 9.33334C8.46125 9.33334 6.465 8.96126 5.01792 8.36001Z" fill="#9A9A9A"/>
</svg>
