<svg width="70" height="70" viewBox="0 0 70 70" fill="none" xmlns="http://www.w3.org/2000/svg">
<g filter="url(#filter0_d_1833_1021)">
<rect x="15" y="15" width="40" height="40" rx="20" fill="white"/>
</g>
<path d="M35 21C27.2686 21 21 27.2708 21 35C21 42.7337 27.2686 49 35 49C42.7314 49 49 42.7337 49 35C49 27.2708 42.7314 21 35 21ZM35 27.2097C36.3095 27.2097 37.371 28.2712 37.371 29.5806C37.371 30.8901 36.3095 31.9516 35 31.9516C33.6905 31.9516 32.629 30.8901 32.629 29.5806C32.629 28.2712 33.6905 27.2097 35 27.2097ZM38.1613 41.5484C38.1613 41.9225 37.858 42.2258 37.4839 42.2258H32.5161C32.142 42.2258 31.8387 41.9225 31.8387 41.5484V40.1935C31.8387 39.8194 32.142 39.5161 32.5161 39.5161H33.1935V35.9032H32.5161C32.142 35.9032 31.8387 35.5999 31.8387 35.2258V33.871C31.8387 33.4969 32.142 33.1935 32.5161 33.1935H36.129C36.5031 33.1935 36.8065 33.4969 36.8065 33.871V39.5161H37.4839C37.858 39.5161 38.1613 39.8194 38.1613 40.1935V41.5484Z" fill="black"/>
<defs>
<filter id="filter0_d_1833_1021" x="0" y="0" width="70" height="70" filterUnits="userSpaceOnUse" color-interpolation-filters="sRGB">
<feFlood flood-opacity="0" result="BackgroundImageFix"/>
<feColorMatrix in="SourceAlpha" type="matrix" values="0 0 0 0 0 0 0 0 0 0 0 0 0 0 0 0 0 0 127 0" result="hardAlpha"/>
<feOffset/>
<feGaussianBlur stdDeviation="7.5"/>
<feComposite in2="hardAlpha" operator="out"/>
<feColorMatrix type="matrix" values="0 0 0 0 0 0 0 0 0 0 0 0 0 0 0 0 0 0 0.25 0"/>
<feBlend mode="normal" in2="BackgroundImageFix" result="effect1_dropShadow_1833_1021"/>
<feBlend mode="normal" in="SourceGraphic" in2="effect1_dropShadow_1833_1021" result="shape"/>
</filter>
</defs>
</svg>
