<svg width="18" height="16" viewBox="0 0 18 16" fill="none" xmlns="http://www.w3.org/2000/svg">
<path d="M14.9999 6.00001H11.4284L8.14398 0.251883C8.10018 0.175354 8.03695 0.111755 7.96067 0.0675241C7.88439 0.0232936 7.79778 2.10043e-06 7.7096 7.63038e-06L5.66273 7.63038e-06C5.33054 7.63038e-06 5.09085 0.31782 5.1821 0.637195L6.71429 6.00001H3.49992L2.14992 4.20001C2.05554 4.07407 1.9071 4.00001 1.74992 4.00001H0.50023C0.174917 4.00001 -0.0638329 4.30563 0.0152296 4.62126L0.999917 8.00001L0.0152296 11.3788C-0.0638329 11.6944 0.174917 12 0.50023 12H1.74992C1.90742 12 2.05554 11.9259 2.14992 11.8L3.49992 10H6.71429L5.1821 15.3625C5.09085 15.6819 5.33054 16 5.66273 16H7.7096C7.88898 16 8.0546 15.9038 8.14367 15.7481L11.4284 10H14.9999C16.1046 10 17.9999 9.1047 17.9999 8.00001C17.9999 6.89532 16.1046 6.00001 14.9999 6.00001Z" fill="#9A9A9A"/>
</svg>
