<svg width="21" height="16" viewBox="0 0 21 16" fill="none" xmlns="http://www.w3.org/2000/svg">
<path fill-rule="evenodd" clip-rule="evenodd" d="M16.9795 15.6734C18.0187 15.6734 19.0154 15.2606 19.7502 14.5258C20.4851 13.7909 20.8979 12.7943 20.8979 11.7551V3.91835C20.8979 2.87914 20.4851 1.88249 19.7502 1.14766C19.0154 0.412825 18.0187 0 16.9795 0H13.551C13.4212 0.000413297 13.2969 0.0521491 13.2051 0.143914C13.1133 0.235679 13.0616 0.36002 13.0612 0.489794V2.12244C13.0616 2.25222 13.1133 2.37656 13.2051 2.46832C13.2969 2.56009 13.4212 2.61182 13.551 2.61224H16.9795C17.3259 2.61224 17.6581 2.74984 17.9031 2.99479C18.148 3.23973 18.2856 3.57195 18.2856 3.91835V11.7551C18.2856 12.1015 18.148 12.4337 17.9031 12.6786C17.6581 12.9236 17.3259 13.0612 16.9795 13.0612H13.551C13.4212 13.0616 13.2969 13.1133 13.2051 13.2051C13.1133 13.2969 13.0616 13.4212 13.0612 13.551V15.1836C13.0616 15.3134 13.1133 15.4377 13.2051 15.5295C13.2969 15.6213 13.4212 15.673 13.551 15.6734H16.9795ZM15.0611 7.46943L8.20399 0.612308C8.06669 0.475616 7.892 0.382632 7.70193 0.345078C7.51186 0.307524 7.31493 0.32708 7.13597 0.401282C6.957 0.475485 6.804 0.601011 6.69627 0.762036C6.58854 0.923061 6.53089 1.11238 6.53059 1.30612V5.22447H0.979591C0.850863 5.22416 0.723341 5.24929 0.604352 5.29841C0.485363 5.34752 0.377251 5.41967 0.286226 5.51069C0.195201 5.60172 0.123057 5.70983 0.073938 5.82882C0.024819 5.94781 -0.000307231 6.07533 2.83508e-06 6.20406V10.1224C-0.000307231 10.2511 0.024819 10.3787 0.073938 10.4976C0.123057 10.6166 0.195201 10.7248 0.286226 10.8158C0.377251 10.9068 0.485363 10.9789 0.604352 11.0281C0.723341 11.0772 0.850863 11.1023 0.979591 11.102H6.53059V15.0204C6.53089 15.2141 6.58854 15.4034 6.69627 15.5644C6.804 15.7255 6.957 15.851 7.13597 15.9252C7.31493 15.9994 7.51186 16.0189 7.70193 15.9814C7.892 15.9438 8.06669 15.8509 8.20399 15.7142L15.0611 8.85704C15.2435 8.67217 15.3457 8.42292 15.3457 8.16323C15.3457 7.90355 15.2435 7.6543 15.0611 7.46943Z" fill="white"/>
</svg>
