<svg width="80" height="92" viewBox="0 0 80 92" fill="none" xmlns="http://www.w3.org/2000/svg">
<path fill-rule="evenodd" clip-rule="evenodd" d="M39.363 89.2117H2.72229C1.7712 89.2117 1 88.4405 1 87.4894V2.72229C1 1.7712 1.7712 1 2.72229 1H63.3296C64.2807 1 65.0519 1.7712 65.0519 2.72229V48.2959C65.0519 49.247 64.2807 50.0182 63.3296 50.0182C62.3785 50.0182 61.6073 49.247 61.6073 48.2959V4.44457H4.44457V85.7671H39.363C40.3141 85.7671 41.0853 86.5383 41.0853 87.4894C41.0853 88.4405 40.3141 89.2117 39.363 89.2117ZM60.8058 91.2C56.0217 91.2 51.4959 89.3954 48.0131 86.0867C43.3495 81.6566 41.321 75.242 42.5898 68.927C42.7773 67.995 43.6844 67.3903 44.6182 67.5779C45.5502 67.7654 46.1549 68.6725 45.9674 69.6063C44.934 74.7522 46.5855 79.9802 50.386 83.5894C53.3196 86.3757 57.1622 87.853 61.2077 87.7497C65.2532 87.6463 69.0154 85.9719 71.8017 83.0383C74.5879 80.1046 76.0653 76.262 75.9619 72.2166C75.8586 68.1711 74.1842 64.4089 71.2505 61.6226C65.9926 56.6287 58.0593 56.1562 52.2948 60.0811L53.6337 60.1969C54.5809 60.2792 55.2832 61.1135 55.201 62.0608C55.1225 62.9583 54.3704 63.6357 53.4863 63.6357H53.4882C53.4385 63.6357 53.3887 63.6338 53.3371 63.63L47.7492 63.1459C47.2938 63.1057 46.8727 62.8875 46.58 62.5392C46.2853 62.189 46.1437 61.7374 46.1819 61.282L46.6661 55.6941C46.7484 54.7468 47.5827 54.0445 48.53 54.1268C49.4772 54.2091 50.1795 55.0434 50.0973 55.9907L49.966 57.5079C57.0693 52.3984 67.0498 52.8834 73.6235 59.1272C77.225 62.5469 79.2783 67.1645 79.4046 72.1305C79.5328 77.0945 77.7187 81.8116 74.299 85.4131C70.8793 89.0146 66.2616 91.0679 61.2957 91.1943C61.1331 91.1981 60.9685 91.2 60.8058 91.2ZM66.7196 74.5627H60.5309C59.5798 74.5627 58.8086 73.7915 58.8086 72.8404V62.9373C58.8086 61.9862 59.5798 61.215 60.5309 61.215C61.482 61.215 62.2532 61.9862 62.2532 62.9373V71.1181H66.7196C67.6707 71.1181 68.4419 71.8893 68.4419 72.8404C68.4419 73.7915 67.6707 74.5627 66.7196 74.5627ZM24.2116 21.1584H51.8792C52.593 21.1584 53.1728 20.3872 53.1728 19.4361C53.1728 18.485 52.593 17.7138 51.8792 17.7138H24.2116C23.4978 17.7138 22.918 18.485 22.918 19.4361C22.918 20.3872 23.4978 21.1584 24.2116 21.1584ZM51.8792 32.3533H24.2116C23.4978 32.3533 22.918 31.5821 22.918 30.631C22.918 29.6799 23.4978 28.9087 24.2116 28.9087H51.8792C52.593 28.9087 53.1728 29.6799 53.1728 30.631C53.1728 31.5821 52.593 32.3533 51.8792 32.3533ZM14.6012 43.5501H51.4486C52.3997 43.5501 53.1709 42.7789 53.1709 41.8278C53.1709 40.8767 52.3997 40.1055 51.4486 40.1055H14.6012C13.6501 40.1055 12.8789 40.8767 12.8789 41.8278C12.8789 42.7789 13.6501 43.5501 14.6012 43.5501ZM40.5101 54.7449H14.6012C13.6501 54.7449 12.8789 53.9737 12.8789 53.0226C12.8789 52.0716 13.6501 51.3004 14.6012 51.3004H40.5101C41.4612 51.3004 42.2324 52.0716 42.2324 53.0226C42.2324 53.9737 41.4612 54.7449 40.5101 54.7449ZM14.6012 65.9417H31.2347C32.1857 65.9417 32.9569 65.1705 32.9569 64.2194C32.9569 63.2683 32.1857 62.4971 31.2347 62.4971H14.6012C13.6501 62.4971 12.8789 63.2683 12.8789 64.2194C12.8789 65.1705 13.6501 65.9417 14.6012 65.9417ZM21.1019 15.848C20.7804 15.4787 20.2216 15.4404 19.8523 15.76L18.7557 16.713L13.6999 21.1087L11.7556 18.1712C11.4858 17.7636 10.9366 17.6526 10.529 17.9224C10.1213 18.1923 10.0104 18.7415 10.2802 19.1491L12.7813 22.9285C12.9229 23.141 13.1468 23.2826 13.3994 23.317C13.4396 23.3228 13.4798 23.3247 13.5181 23.3247C13.7305 23.3247 13.9372 23.2481 14.0979 23.1084L18.8667 18.9635L21.0119 17.0976C21.3813 16.7762 21.4196 16.2174 21.1 15.848H21.1019ZM19.8523 26.9568C20.2216 26.6372 20.7804 26.6755 21.1019 27.0448H21.1C21.4196 27.4141 21.3813 27.9729 21.0119 28.2944L18.8667 30.1602L14.0979 34.3052C13.9372 34.4449 13.7305 34.5214 13.5181 34.5214C13.4798 34.5214 13.4396 34.5195 13.3994 34.5138C13.1468 34.4793 12.9229 34.3377 12.7813 34.1253L10.2802 30.3459C10.0104 29.9382 10.1213 29.389 10.529 29.1192C10.9366 28.8494 11.4858 28.9604 11.7556 29.368L13.6999 32.3054L18.7557 27.9098L19.8523 26.9568Z" fill="#C6CED6"/>
<path d="M61.6073 4.44457H62.1073V3.94457H61.6073V4.44457ZM4.44457 4.44457V3.94457H3.94457V4.44457H4.44457ZM4.44457 85.7671H3.94457V86.2671H4.44457V85.7671ZM48.0131 86.0867L48.3574 85.7242L48.3574 85.7242L48.0131 86.0867ZM42.5898 68.927L42.0996 68.8284L42.0996 68.8285L42.5898 68.927ZM44.6182 67.5779L44.7169 67.0877L44.7167 67.0877L44.6182 67.5779ZM45.9674 69.6063L45.4771 69.5079L45.9674 69.6063ZM50.386 83.5894L50.7303 83.2269L50.7303 83.2268L50.386 83.5894ZM61.2077 87.7497L61.2205 88.2495L61.2077 87.7497ZM71.8017 83.0383L72.1642 83.3826L71.8017 83.0383ZM75.9619 72.2166L75.4621 72.2293V72.2293L75.9619 72.2166ZM71.2505 61.6226L71.5949 61.26L71.2505 61.6226ZM52.2948 60.0811L52.0134 59.6678L50.8525 60.4582L52.2517 60.5792L52.2948 60.0811ZM53.6337 60.1969L53.677 59.6988L53.6768 59.6988L53.6337 60.1969ZM55.201 62.0608L55.6991 62.1044L55.6991 62.1041L55.201 62.0608ZM53.3371 63.63L53.2939 64.1282L53.3001 64.1286L53.3371 63.63ZM47.7492 63.1459L47.7053 63.6439L47.706 63.644L47.7492 63.1459ZM46.58 62.5392L46.9627 62.2175L46.9625 62.2173L46.58 62.5392ZM46.1819 61.282L45.6838 61.2388L45.6837 61.2401L46.1819 61.282ZM46.6661 55.6941L46.168 55.6508L46.1679 55.6509L46.6661 55.6941ZM50.0973 55.9907L49.5991 55.9474L49.5991 55.9476L50.0973 55.9907ZM49.966 57.5079L49.4679 57.4648L49.374 58.5497L50.258 57.9138L49.966 57.5079ZM73.6235 59.1272L73.2791 59.4897L73.2792 59.4898L73.6235 59.1272ZM79.4046 72.1305L78.9048 72.1432L78.9048 72.1434L79.4046 72.1305ZM74.299 85.4131L73.9364 85.0688L74.299 85.4131ZM61.2957 91.1943L61.3075 91.6941L61.3084 91.6941L61.2957 91.1943ZM62.2532 71.1181H61.7532V71.6181H62.2532V71.1181ZM19.8523 15.76L19.5251 15.3819L19.5243 15.3826L19.8523 15.76ZM21.1019 15.848V16.348H22.2L21.479 15.5197L21.1019 15.848ZM18.7557 16.713L18.4278 16.3356L18.4277 16.3357L18.7557 16.713ZM13.6999 21.1087L13.2829 21.3846L13.5976 21.8601L14.0279 21.486L13.6999 21.1087ZM11.7556 18.1712L12.1725 17.8952L12.1725 17.8952L11.7556 18.1712ZM10.529 17.9224L10.805 18.3394H10.805L10.529 17.9224ZM10.2802 19.1491L10.6971 18.8731L10.6971 18.8731L10.2802 19.1491ZM12.7813 22.9285L12.3644 23.2045L12.3653 23.2059L12.7813 22.9285ZM13.3994 23.317L13.4701 22.822L13.467 22.8216L13.3994 23.317ZM14.0979 23.1084L14.4259 23.4858L14.4259 23.4858L14.0979 23.1084ZM18.8667 18.9635L19.1947 19.3408L19.1949 19.3407L18.8667 18.9635ZM21.0119 17.0976L21.3401 17.4749L21.3402 17.4748L21.0119 17.0976ZM21.1 15.848V15.348H20.0061L20.7219 16.1752L21.1 15.848ZM21.1019 27.0448V27.5448H22.2L21.479 26.7165L21.1019 27.0448ZM19.8523 26.9568L19.5251 26.5787L19.5243 26.5794L19.8523 26.9568ZM21.1 27.0448V26.5448H20.0061L20.7219 27.372L21.1 27.0448ZM21.0119 28.2944L21.3401 28.6717L21.3402 28.6716L21.0119 28.2944ZM18.8667 30.1602L19.1947 30.5376L19.1949 30.5375L18.8667 30.1602ZM14.0979 34.3052L14.4259 34.6826L14.4259 34.6826L14.0979 34.3052ZM13.3994 34.5138L13.4701 34.0188L13.467 34.0184L13.3994 34.5138ZM12.7813 34.1253L12.3644 34.4013L12.3653 34.4027L12.7813 34.1253ZM10.2802 30.3459L10.6971 30.0699L10.6971 30.0699L10.2802 30.3459ZM10.529 29.1192L10.805 29.5361H10.805L10.529 29.1192ZM11.7556 29.368L12.1725 29.092L12.1725 29.092L11.7556 29.368ZM13.6999 32.3054L13.2829 32.5814L13.5976 33.0569L14.0279 32.6828L13.6999 32.3054ZM18.7557 27.9098L18.4278 27.5324L18.4277 27.5324L18.7557 27.9098ZM2.72229 89.7117H39.363V88.7117H2.72229V89.7117ZM0.5 87.4894C0.5 88.7166 1.49506 89.7117 2.72229 89.7117V88.7117C2.04734 88.7117 1.5 88.1644 1.5 87.4894H0.5ZM0.5 2.72229V87.4894H1.5V2.72229H0.5ZM2.72229 0.5C1.49506 0.5 0.5 1.49506 0.5 2.72229H1.5C1.5 2.04734 2.04734 1.5 2.72229 1.5V0.5ZM63.3296 0.5H2.72229V1.5H63.3296V0.5ZM65.5519 2.72229C65.5519 1.49506 64.5568 0.5 63.3296 0.5V1.5C64.0045 1.5 64.5519 2.04734 64.5519 2.72229H65.5519ZM65.5519 48.2959V2.72229H64.5519V48.2959H65.5519ZM63.3296 50.5182C64.5568 50.5182 65.5519 49.5231 65.5519 48.2959H64.5519C64.5519 48.9709 64.0045 49.5182 63.3296 49.5182V50.5182ZM61.1073 48.2959C61.1073 49.5231 62.1023 50.5182 63.3296 50.5182V49.5182C62.6546 49.5182 62.1073 48.9709 62.1073 48.2959H61.1073ZM61.1073 4.44457V48.2959H62.1073V4.44457H61.1073ZM4.44457 4.94457H61.6073V3.94457H4.44457V4.94457ZM4.94457 85.7671V4.44457H3.94457V85.7671H4.94457ZM39.363 85.2671H4.44457V86.2671H39.363V85.2671ZM41.5853 87.4894C41.5853 86.2622 40.5902 85.2671 39.363 85.2671V86.2671C40.0379 86.2671 40.5853 86.8145 40.5853 87.4894H41.5853ZM39.363 89.7117C40.5902 89.7117 41.5853 88.7166 41.5853 87.4894H40.5853C40.5853 88.1644 40.0379 88.7117 39.363 88.7117V89.7117ZM47.6687 86.4492C51.2444 89.8461 55.8934 91.7 60.8058 91.7V90.7C56.15 90.7 51.7474 88.9447 48.3574 85.7242L47.6687 86.4492ZM42.0996 68.8285C40.797 75.3119 42.8804 81.9006 47.6687 86.4492L48.3574 85.7242C43.8186 81.4126 41.845 75.1722 43.08 69.0255L42.0996 68.8285ZM44.7167 67.0877C43.5119 66.8457 42.3415 67.626 42.0996 68.8284L43.0799 69.0256C43.2131 68.3641 43.8568 67.9349 44.5198 68.0681L44.7167 67.0877ZM46.4576 69.7048C46.6995 68.5001 45.9193 67.3297 44.7169 67.0877L44.5196 68.068C45.1811 68.2012 45.6103 68.8449 45.4771 69.5079L46.4576 69.7048ZM50.7303 83.2268C47.0547 79.7363 45.458 74.6824 46.4576 69.7048L45.4771 69.5079C44.41 74.8219 46.1162 80.2242 50.0417 83.952L50.7303 83.2268ZM61.1949 87.2498C57.282 87.3498 53.5678 85.9218 50.7303 83.2269L50.0417 83.9519C53.0714 86.8295 57.0425 88.3562 61.2205 88.2495L61.1949 87.2498ZM71.4391 82.6939C68.7441 85.5315 65.1076 87.1499 61.1949 87.2498L61.2205 88.2495C65.3987 88.1428 69.2867 86.4123 72.1642 83.3826L71.4391 82.6939ZM75.4621 72.2293C75.5621 76.1423 74.1341 79.8564 71.4391 82.6939L72.1642 83.3826C75.0418 80.3528 76.5685 76.3818 76.4618 72.2038L75.4621 72.2293ZM70.9062 61.9851C73.7437 64.6801 75.3622 68.3166 75.4621 72.2293L76.4618 72.2038C76.3551 68.0256 74.6246 64.1376 71.5949 61.26L70.9062 61.9851ZM52.5762 60.4944C58.1505 56.699 65.8227 57.157 70.9062 61.9851L71.5949 61.26C66.1624 56.1005 57.968 55.6135 52.0134 59.6678L52.5762 60.4944ZM53.6768 59.6988L52.3378 59.583L52.2517 60.5792L53.5906 60.695L53.6768 59.6988ZM55.6991 62.1041C55.8053 60.8812 54.8988 59.8049 53.677 59.6988L53.5904 60.695C54.2631 60.7535 54.7612 61.3459 54.7028 62.0175L55.6991 62.1041ZM53.4863 64.1357C54.6281 64.1357 55.5979 63.2617 55.6991 62.1044L54.7029 62.0173C54.6471 62.6549 54.1128 63.1357 53.4863 63.1357V64.1357ZM53.4882 63.1357H53.4863V64.1357H53.4882V63.1357ZM53.3001 64.1286C53.3633 64.1333 53.4254 64.1357 53.4882 64.1357V63.1357C53.4516 63.1357 53.4141 63.1343 53.374 63.1314L53.3001 64.1286ZM47.706 63.644L53.2939 64.1281L53.3802 63.1319L47.7924 62.6477L47.706 63.644ZM46.1972 62.861C46.5758 63.3113 47.119 63.5922 47.7053 63.6439L47.7932 62.6478C47.4685 62.6191 47.1697 62.4637 46.9627 62.2175L46.1972 62.861ZM45.6837 61.2401C45.6344 61.8259 45.8166 62.4087 46.1974 62.8612L46.9625 62.2173C46.7539 61.9694 46.6529 61.6489 46.6802 61.3238L45.6837 61.2401ZM46.1679 55.6509L45.6838 61.2388L46.6801 61.3251L47.1642 55.7372L46.1679 55.6509ZM48.5732 53.6287C47.3503 53.5225 46.2741 54.429 46.168 55.6508L47.1642 55.7374C47.2226 55.0647 47.8151 54.5666 48.4867 54.6249L48.5732 53.6287ZM50.5954 56.034C50.7016 54.8111 49.7951 53.7348 48.5732 53.6287L48.4867 54.6249C49.1594 54.6834 49.6575 55.2758 49.5991 55.9474L50.5954 56.034ZM50.4641 57.551L50.5954 56.0338L49.5991 55.9476L49.4679 57.4648L50.4641 57.551ZM73.9678 58.7646C67.2165 52.3522 56.9684 51.855 49.674 57.102L50.258 57.9138C57.1702 52.9417 66.8831 53.4147 73.2791 59.4897L73.9678 58.7646ZM79.9044 72.1177C79.7748 67.0192 77.6655 62.2757 73.9678 58.7646L73.2792 59.4898C76.7845 62.8181 78.7818 67.3099 78.9048 72.1432L79.9044 72.1177ZM74.6616 85.7574C78.1725 82.0598 80.0361 77.2142 79.9044 72.1175L78.9048 72.1434C79.0296 76.9747 77.2649 81.5634 73.9364 85.0688L74.6616 85.7574ZM61.3084 91.6941C66.407 91.5644 71.1505 89.4551 74.6616 85.7574L73.9364 85.0688C70.6081 88.5741 66.1163 90.5715 61.283 90.6944L61.3084 91.6941ZM60.8058 91.7C60.9723 91.7 61.1408 91.698 61.3075 91.6941L61.2839 90.6944C61.1253 90.6981 60.9646 90.7 60.8058 90.7V91.7ZM60.5309 75.0627H66.7196V74.0627H60.5309V75.0627ZM58.3086 72.8404C58.3086 74.0676 59.3037 75.0627 60.5309 75.0627V74.0627C59.8559 74.0627 59.3086 73.5154 59.3086 72.8404H58.3086ZM58.3086 62.9373V72.8404H59.3086V62.9373H58.3086ZM60.5309 60.715C59.3037 60.715 58.3086 61.71 58.3086 62.9373H59.3086C59.3086 62.2623 59.8559 61.715 60.5309 61.715V60.715ZM62.7532 62.9373C62.7532 61.71 61.7581 60.715 60.5309 60.715V61.715C61.2058 61.715 61.7532 62.2623 61.7532 62.9373H62.7532ZM62.7532 71.1181V62.9373H61.7532V71.1181H62.7532ZM66.7196 70.6181H62.2532V71.6181H66.7196V70.6181ZM68.9419 72.8404C68.9419 71.6132 67.9469 70.6181 66.7196 70.6181V71.6181C67.3946 71.6181 67.9419 72.1655 67.9419 72.8404H68.9419ZM66.7196 75.0627C67.9469 75.0627 68.9419 74.0676 68.9419 72.8404H67.9419C67.9419 73.5154 67.3946 74.0627 66.7196 74.0627V75.0627ZM51.8792 20.6584H24.2116V21.6584H51.8792V20.6584ZM52.6728 19.4361C52.6728 19.8136 52.5571 20.1364 52.3939 20.3536C52.2308 20.5707 52.0436 20.6584 51.8792 20.6584V21.6584C52.4285 21.6584 52.8882 21.3605 53.1934 20.9543C53.4986 20.5481 53.6728 20.0097 53.6728 19.4361H52.6728ZM51.8792 18.2138C52.0436 18.2138 52.2308 18.3016 52.3939 18.5187C52.5571 18.7359 52.6728 19.0586 52.6728 19.4361H53.6728C53.6728 18.8625 53.4986 18.3242 53.1934 17.918C52.8882 17.5117 52.4285 17.2138 51.8792 17.2138V18.2138ZM24.2116 18.2138H51.8792V17.2138H24.2116V18.2138ZM23.418 19.4361C23.418 19.0586 23.5337 18.7359 23.6969 18.5187C23.86 18.3016 24.0472 18.2138 24.2116 18.2138V17.2138C23.6623 17.2138 23.2026 17.5117 22.8974 17.918C22.5922 18.3242 22.418 18.8625 22.418 19.4361H23.418ZM24.2116 20.6584C24.0472 20.6584 23.86 20.5707 23.6969 20.3536C23.5337 20.1364 23.418 19.8136 23.418 19.4361H22.418C22.418 20.0097 22.5922 20.5481 22.8974 20.9543C23.2026 21.3605 23.6623 21.6584 24.2116 21.6584V20.6584ZM24.2116 32.8533H51.8792V31.8533H24.2116V32.8533ZM22.418 30.631C22.418 31.2046 22.5922 31.743 22.8974 32.1491C23.2026 32.5554 23.6623 32.8533 24.2116 32.8533V31.8533C24.0472 31.8533 23.86 31.7656 23.6969 31.5485C23.5337 31.3313 23.418 31.0085 23.418 30.631H22.418ZM24.2116 28.4087C23.6623 28.4087 23.2026 28.7066 22.8974 29.1129C22.5922 29.519 22.418 30.0574 22.418 30.631H23.418C23.418 30.2535 23.5337 29.9307 23.6969 29.7135C23.86 29.4964 24.0472 29.4087 24.2116 29.4087V28.4087ZM51.8792 28.4087H24.2116V29.4087H51.8792V28.4087ZM53.6728 30.631C53.6728 30.0574 53.4986 29.519 53.1934 29.1128C52.8882 28.7066 52.4285 28.4087 51.8792 28.4087V29.4087C52.0436 29.4087 52.2308 29.4964 52.3939 29.7135C52.5571 29.9307 52.6728 30.2535 52.6728 30.631H53.6728ZM51.8792 32.8533C52.4285 32.8533 52.8882 32.5554 53.1934 32.1491C53.4986 31.743 53.6728 31.2046 53.6728 30.631H52.6728C52.6728 31.0085 52.5571 31.3313 52.3939 31.5485C52.2308 31.7656 52.0436 31.8533 51.8792 31.8533V32.8533ZM51.4486 43.0501H14.6012V44.0501H51.4486V43.0501ZM52.6709 41.8278C52.6709 42.5027 52.1235 43.0501 51.4486 43.0501V44.0501C52.6758 44.0501 53.6709 43.055 53.6709 41.8278H52.6709ZM51.4486 40.6055C52.1235 40.6055 52.6709 41.1528 52.6709 41.8278H53.6709C53.6709 40.6005 52.6758 39.6055 51.4486 39.6055V40.6055ZM14.6012 40.6055H51.4486V39.6055H14.6012V40.6055ZM13.3789 41.8278C13.3789 41.1528 13.9263 40.6055 14.6012 40.6055V39.6055C13.374 39.6055 12.3789 40.6005 12.3789 41.8278H13.3789ZM14.6012 43.0501C13.9263 43.0501 13.3789 42.5027 13.3789 41.8278H12.3789C12.3789 43.055 13.374 44.0501 14.6012 44.0501V43.0501ZM14.6012 55.2449H40.5101V54.2449H14.6012V55.2449ZM12.3789 53.0226C12.3789 54.2499 13.374 55.2449 14.6012 55.2449V54.2449C13.9263 54.2449 13.3789 53.6976 13.3789 53.0226H12.3789ZM14.6012 50.8004C13.374 50.8004 12.3789 51.7954 12.3789 53.0226H13.3789C13.3789 52.3477 13.9263 51.8004 14.6012 51.8004V50.8004ZM40.5101 50.8004H14.6012V51.8004H40.5101V50.8004ZM42.7324 53.0226C42.7324 51.7954 41.7374 50.8004 40.5101 50.8004V51.8004C41.1851 51.8004 41.7324 52.3477 41.7324 53.0226H42.7324ZM40.5101 55.2449C41.7374 55.2449 42.7324 54.2499 42.7324 53.0226H41.7324C41.7324 53.6976 41.1851 54.2449 40.5101 54.2449V55.2449ZM31.2347 65.4417H14.6012V66.4417H31.2347V65.4417ZM32.4569 64.2194C32.4569 64.8944 31.9096 65.4417 31.2347 65.4417V66.4417C32.4619 66.4417 33.4569 65.4466 33.4569 64.2194H32.4569ZM31.2347 62.9971C31.9096 62.9971 32.4569 63.5445 32.4569 64.2194H33.4569C33.4569 62.9922 32.4619 61.9971 31.2347 61.9971V62.9971ZM14.6012 62.9971H31.2347V61.9971H14.6012V62.9971ZM13.3789 64.2194C13.3789 63.5445 13.9263 62.9971 14.6012 62.9971V61.9971C13.374 61.9971 12.3789 62.9922 12.3789 64.2194H13.3789ZM14.6012 65.4417C13.9263 65.4417 13.3789 64.8944 13.3789 64.2194H12.3789C12.3789 65.4466 13.374 66.4417 14.6012 66.4417V65.4417ZM20.1794 16.1381C20.341 15.9983 20.5847 16.0155 20.7248 16.1763L21.479 15.5197C20.9761 14.9419 20.1022 14.8826 19.5251 15.3819L20.1794 16.1381ZM19.0837 17.0904L20.1803 16.1374L19.5243 15.3826L18.4278 16.3356L19.0837 17.0904ZM14.0279 21.486L19.0838 17.0903L18.4277 16.3357L13.3718 20.7313L14.0279 21.486ZM11.3387 18.4472L13.2829 21.3846L14.1168 20.8327L12.1725 17.8952L11.3387 18.4472ZM10.805 18.3394C10.9829 18.2216 11.2217 18.2705 11.3387 18.4472L12.1725 17.8952C11.7499 17.2567 10.8902 17.0837 10.253 17.5055L10.805 18.3394ZM10.6971 18.8731C10.5793 18.6951 10.6282 18.4564 10.805 18.3394L10.253 17.5055C9.61449 17.9282 9.44141 18.7878 9.86326 19.4251L10.6971 18.8731ZM13.1983 22.6526L10.6971 18.8731L9.86322 19.425L12.3644 23.2045L13.1983 22.6526ZM13.467 22.8216C13.3584 22.8068 13.2605 22.746 13.1973 22.6512L12.3653 23.2059C12.5853 23.5359 12.9353 23.7583 13.3319 23.8124L13.467 22.8216ZM13.5181 22.8247C13.4957 22.8247 13.4803 22.8235 13.4701 22.822L13.3287 23.812C13.3989 23.822 13.4639 23.8247 13.5181 23.8247V22.8247ZM13.7699 22.731C13.7009 22.791 13.6109 22.8247 13.5181 22.8247V23.8247C13.8501 23.8247 14.1734 23.7052 14.4259 23.4858L13.7699 22.731ZM18.5387 18.5861L13.7699 22.7311L14.4259 23.4858L19.1947 19.3408L18.5387 18.5861ZM20.6838 16.7204L18.5386 18.5862L19.1949 19.3407L21.3401 17.4749L20.6838 16.7204ZM20.7219 16.1752C20.8617 16.3368 20.8445 16.5805 20.6837 16.7205L21.3402 17.4748C21.918 16.9718 21.9774 16.0979 21.4781 15.5209L20.7219 16.1752ZM21.1019 15.348H21.1V16.348H21.1019V15.348ZM21.479 26.7165C20.9761 26.1387 20.1022 26.0793 19.5251 26.5787L20.1794 27.3349C20.341 27.1951 20.5847 27.2122 20.7248 27.3731L21.479 26.7165ZM21.1 27.5448H21.1019V26.5448H21.1V27.5448ZM21.3402 28.6716C21.918 28.1686 21.9774 27.2947 21.4781 26.7176L20.7219 27.372C20.8617 27.5336 20.8445 27.7773 20.6837 27.9173L21.3402 28.6716ZM19.1949 30.5375L21.3401 28.6717L20.6838 27.9172L18.5386 29.783L19.1949 30.5375ZM14.4259 34.6826L19.1947 30.5376L18.5387 29.7829L13.7699 33.9278L14.4259 34.6826ZM13.5181 35.0214C13.8501 35.0214 14.1734 34.902 14.4259 34.6826L13.7699 33.9278C13.7009 33.9878 13.6109 34.0214 13.5181 34.0214V35.0214ZM13.3287 35.0088C13.3989 35.0188 13.4639 35.0214 13.5181 35.0214V34.0214C13.4957 34.0214 13.4803 34.0203 13.4701 34.0188L13.3287 35.0088ZM12.3653 34.4027C12.5853 34.7327 12.9353 34.9551 13.3319 35.0092L13.467 34.0184C13.3584 34.0036 13.2605 33.9427 13.1973 33.848L12.3653 34.4027ZM9.86322 30.6218L12.3644 34.4013L13.1983 33.8494L10.6971 30.0699L9.86322 30.6218ZM10.253 28.7023C9.61449 29.1249 9.44141 29.9846 9.86326 30.6218L10.6971 30.0699C10.5793 29.8919 10.6282 29.6531 10.805 29.5361L10.253 28.7023ZM12.1725 29.092C11.7499 28.4535 10.8902 28.2804 10.253 28.7023L10.805 29.5361C10.9829 29.4183 11.2217 29.4672 11.3387 29.644L12.1725 29.092ZM14.1168 32.0295L12.1725 29.092L11.3387 29.6439L13.2829 32.5814L14.1168 32.0295ZM18.4277 27.5324L13.3718 31.9281L14.0279 32.6828L19.0838 28.2871L18.4277 27.5324ZM19.5243 26.5794L18.4278 27.5324L19.0837 28.2872L20.1803 27.3342L19.5243 26.5794Z" fill="#C6CED6"/>
</svg>
