<svg width="25" height="25" viewBox="0 0 25 25" fill="none" xmlns="http://www.w3.org/2000/svg">
<path d="M18.9312 7.03125C18.9312 10.5817 16.0505 13.4625 12.5 13.4625C8.94954 13.4625 6.06875 10.5817 6.06875 7.03125C6.06875 3.48078 8.94954 0.6 12.5 0.6C16.0505 0.6 18.9312 3.48078 18.9312 7.03125ZM12.5 17.0063C13.8122 17.0063 15.0608 16.7236 16.1885 16.225H18.75C21.8708 16.225 24.4 18.7542 24.4 21.875V22.6562C24.4 23.6188 23.6188 24.4 22.6562 24.4H2.34375C1.38118 24.4 0.6 23.6188 0.6 22.6562V21.875C0.6 18.7542 3.12922 16.225 6.25 16.225H8.81196C9.94295 16.7233 11.1869 17.0063 12.5 17.0063Z" stroke="#808080" stroke-opacity="0.7" stroke-width="1.2"/>
</svg>
