<svg width="29" height="20" viewBox="0 0 29 20" fill="none" xmlns="http://www.w3.org/2000/svg">
<path d="M25.9583 1.4H5.81944C4.99873 1.4 4.31869 2.00223 4.19712 2.78889H3.04167C2.13499 2.78889 1.4 3.52388 1.4 4.43056V16.2361C1.4 17.9098 2.75682 19.2667 4.43056 19.2667H24.9167C26.3986 19.2667 27.6 18.0653 27.6 16.5833V3.04167C27.6 2.13499 26.865 1.4 25.9583 1.4ZM14.5944 15.1V15.2889H8.15556V15.1H14.5944ZM23.6222 15.1V15.2889H17.1833V15.1H23.6222ZM14.5944 10.9333V11.1222H8.15556V10.9333H14.5944ZM23.6222 10.9333V11.1222H17.1833V10.9333H23.6222ZM23.6222 6.95556H8.15556V5.37778H23.6222V6.95556Z" stroke="#808080" stroke-opacity="0.7" stroke-width="1.2"/>
</svg>
