<svg width="25" height="25" viewBox="0 0 25 25" fill="none" xmlns="http://www.w3.org/2000/svg">
<path d="M17.915 16.0388L17.9154 16.0382C17.9938 15.9422 18.1013 15.8743 18.2216 15.8446C18.3418 15.815 18.4683 15.8252 18.5822 15.8736C18.5824 15.8737 18.5825 15.8737 18.5826 15.8738L24.0473 18.2158C24.0477 18.216 24.0482 18.2162 24.0486 18.2164C24.173 18.2708 24.2746 18.3668 24.3361 18.4879C24.3976 18.6091 24.4151 18.7478 24.3856 18.8804C24.3855 18.8808 24.3854 18.8812 24.3853 18.8817L23.2142 23.9564C23.1851 24.0824 23.1141 24.1949 23.0128 24.2754C22.9116 24.3559 22.786 24.3996 22.6566 24.3996H22.6562C10.4824 24.3996 0.6 14.536 0.6 2.34331L0.6 2.34317C0.599971 2.21385 0.643778 2.08833 0.724272 1.98711C0.804748 1.8859 0.917142 1.81496 1.04312 1.78585C1.04315 1.78585 1.04317 1.78584 1.0432 1.78583L6.11931 0.614419C6.11958 0.614358 6.11985 0.614298 6.12012 0.614237C6.25148 0.584575 6.38909 0.601575 6.50929 0.662334C6.62927 0.722978 6.72443 0.823428 6.7785 0.946472C6.77871 0.946958 6.77893 0.947445 6.77914 0.947932L9.12133 6.41308C9.12134 6.4131 9.12135 6.41313 9.12136 6.41316C9.17003 6.5268 9.18036 6.65321 9.15078 6.77326C9.12119 6.89332 9.05329 7.00048 8.95735 7.07851L8.95591 7.07968L5.99693 9.50156L5.63454 9.79817L5.83425 10.2217C7.68575 14.1487 10.846 17.3089 14.7729 19.1604L15.1965 19.3601L15.4931 18.9977L17.915 16.0388Z" stroke="#808080" stroke-opacity="0.7" stroke-width="1.2"/>
</svg>
