<svg width="10" height="10" viewBox="0 0 10 10" fill="none" xmlns="http://www.w3.org/2000/svg">
<path fill-rule="evenodd" clip-rule="evenodd" d="M3.92904 3.92858V0.714285C3.92904 0.319866 4.2489 0 4.64332 0H5.35761C5.75203 0 6.07189 0.319866 6.07189 0.714285V3.92858H9.28571C9.68013 3.92858 10 4.24844 10 4.64286V5.35715C10 5.75157 9.68013 6.07144 9.28571 6.07144H6.07189V9.28571C6.07189 9.68013 5.75203 10 5.35761 10H4.64332C4.2489 10 3.92904 9.68013 3.92904 9.28571V6.07144H0.714286C0.319866 6.07144 0 5.75157 0 5.35715V4.64286C0 4.24844 0.319866 3.92858 0.714286 3.92858H3.92904Z" fill="#733A77"/>
</svg>
