<svg width="25" height="25" viewBox="0 0 25 25" fill="none" xmlns="http://www.w3.org/2000/svg">
<path d="M15.1393 20.1126L15.1394 20.1125L24.4 13.4228V22.6564C24.4 23.6195 23.6193 24.4002 22.6562 24.4002H2.34375C1.38069 24.4002 0.6 23.6195 0.6 22.6564V13.4228L9.86052 20.1125C9.86053 20.1125 9.86055 20.1125 9.86057 20.1125C10.6495 20.6825 11.5747 20.9678 12.5 20.9678C13.4255 20.9678 14.3506 20.6819 15.1393 20.1126ZM23.7318 8.42884L23.7319 8.42892C24.1538 8.75956 24.4 9.26563 24.4 9.80093V10.0142L20.9125 12.5336V4.68765V4.08765H20.3125H4.6875H4.0875V4.68765V12.5336L0.6 10.0142V9.80101C0.6 9.80099 0.6 9.80096 0.6 9.80093C0.600048 9.53658 0.66021 9.27569 0.775936 9.03801C0.891674 8.8003 1.05996 8.59203 1.26805 8.42895L1.26819 8.42884C1.69879 8.09117 2.10521 7.77437 2.70505 7.32195L2.94375 7.14191V6.84292V4.68765C2.94375 3.72459 3.72444 2.9439 4.6875 2.9439H8.47412H8.66845L8.82588 2.82997C8.92176 2.76059 9.01381 2.69373 9.1083 2.6251C9.1604 2.58725 9.21324 2.54887 9.26789 2.50923L9.26913 2.50832C9.43205 2.38947 9.60509 2.25541 9.78907 2.11287C10.1282 1.85015 10.5044 1.55863 10.923 1.28054C11.2336 1.07419 11.537 0.897398 11.8179 0.774602C12.1045 0.6493 12.3286 0.597633 12.4909 0.600082L12.5 0.600219L12.5091 0.600082C12.6714 0.597633 12.8956 0.649304 13.1822 0.774612C13.4631 0.897412 13.7666 1.07421 14.0772 1.28055C14.4963 1.55896 14.8733 1.85113 15.2129 2.11422C15.3962 2.25627 15.5686 2.38985 15.7307 2.50822L15.7321 2.50923C15.7868 2.54887 15.8396 2.58725 15.8917 2.6251C15.9862 2.69373 16.0782 2.76059 16.1741 2.82997L16.3315 2.9439H16.5259H20.3125C21.2756 2.9439 22.0562 3.72459 22.0562 4.68765V6.84292V7.14172L22.2947 7.32176C22.8948 7.7749 23.3014 8.09135 23.7318 8.42884ZM16.4062 9.94703H8.59375C8.49348 9.94703 8.4125 9.86604 8.4125 9.76578V8.98453C8.4125 8.88426 8.49348 8.80328 8.59375 8.80328H16.4062C16.5065 8.80328 16.5875 8.88426 16.5875 8.98453V9.76578C16.5875 9.86604 16.5065 9.94703 16.4062 9.94703ZM8.59375 14.6345C8.49348 14.6345 8.4125 14.5535 8.4125 14.4533V13.672C8.4125 13.5718 8.49348 13.4908 8.59375 13.4908H16.4062C16.5065 13.4908 16.5875 13.5718 16.5875 13.672V14.4533C16.5875 14.5535 16.5065 14.6345 16.4062 14.6345H8.59375Z" stroke="#808080" stroke-opacity="0.7" stroke-width="1.2"/>
</svg>
