<svg width="19" height="25" viewBox="0 0 19 25" fill="none" xmlns="http://www.w3.org/2000/svg">
<path d="M8.90521 24.1546C7.62511 22.2989 6.53715 20.749 5.61266 19.4321C3.96093 17.0792 2.83101 15.4696 2.05945 14.1866C1.46531 13.1987 1.10633 12.4396 0.891921 11.7155C0.678874 10.9961 0.6 10.2825 0.6 9.375C0.6 4.52868 4.52869 0.6 9.375 0.6C14.2213 0.6 18.15 4.52868 18.15 9.375C18.15 10.2825 18.0711 10.9961 17.8581 11.7155C17.6437 12.4396 17.2847 13.1987 16.6905 14.1866C15.919 15.4696 14.7891 17.0792 13.1373 19.4321C12.2129 20.749 11.1249 22.2988 9.84489 24.1545C9.61792 24.4818 9.13222 24.4818 8.90521 24.1546ZM9.375 13.8812C11.8637 13.8812 13.8813 11.8637 13.8813 9.375C13.8813 6.88626 11.8637 4.86875 9.375 4.86875C6.88626 4.86875 4.86875 6.88626 4.86875 9.375C4.86875 11.8637 6.88626 13.8812 9.375 13.8812Z" stroke="#808080" stroke-opacity="0.7" stroke-width="1.2"/>
</svg>
