<svg width="22" height="25" viewBox="0 0 22 25" fill="none" xmlns="http://www.w3.org/2000/svg">
<path fill-rule="evenodd" clip-rule="evenodd" d="M10.0625 11.5C13.2385 11.5 15.8125 8.92598 15.8125 5.75C15.8125 2.57402 13.2385 0 10.0625 0C6.88652 0 4.3125 2.57402 4.3125 5.75C4.3125 8.92598 6.88652 11.5 10.0625 11.5ZM14.0875 12.9375H13.3373C12.34 13.3957 11.2305 13.6562 10.0625 13.6562C8.89453 13.6562 7.78945 13.3957 6.7877 12.9375H6.0375C2.7043 12.9375 0 15.6418 0 18.975V20.8438C0 22.0342 0.96582 23 2.15625 23H10V16C10 15.4477 10.4477 15 11 15H18.6311C17.5242 13.736 15.8987 12.9375 14.0875 12.9375ZM22 19.5684C22 19.4727 21.8867 19.416 21.8105 19.4766C21.373 19.8164 20.7949 20.25 18.8027 21.6973C18.7423 21.7413 18.6746 21.7937 18.6008 21.8508C18.1904 22.1683 17.591 22.6319 17 22.627C16.4118 22.6303 15.8221 22.1753 15.4052 21.8536C15.3307 21.7961 15.2617 21.7429 15.1992 21.6973C13.207 20.25 12.627 19.8184 12.1895 19.4785C12.1113 19.418 12 19.4727 12 19.5703V23.5625C12 24.0801 12.4199 24.5 12.9375 24.5H21.0625C21.5801 24.5 22 24.0801 22 23.5625V19.5684ZM18.2391 21.3391C17.8878 21.6105 17.3755 22.0065 17 22C16.6245 22.0065 16.1122 21.6105 15.7609 21.3391C15.6883 21.283 15.6226 21.2322 15.5664 21.1914C13.1642 19.4482 12.819 19.178 12.3055 18.7762C12.265 18.7444 12.2234 18.7119 12.1797 18.6777C12.0664 18.5879 12 18.4531 12 18.3086V17.9375C12 17.4199 12.4199 17 12.9375 17H21.0625C21.5801 17 22 17.4199 22 17.9375V18.3086C22 18.4531 21.9336 18.5898 21.8203 18.6777C21.7868 18.704 21.7545 18.7293 21.7231 18.7541C21.193 19.1703 20.8801 19.416 18.4336 21.1914C18.3774 21.2322 18.3117 21.283 18.2391 21.3391Z" fill="#A870AC"/>
</svg>
