<svg width="132" height="90" viewBox="0 0 132 90" fill="none" xmlns="http://www.w3.org/2000/svg">
<mask id="path-1-inside-1_1017_1023" fill="white">
<path fill-rule="evenodd" clip-rule="evenodd" d="M130.879 79.37L116.789 34.01C115.759 30.7 112.739 28.48 109.279 28.48H104.169V20.97H126.339C127.789 20.97 128.959 19.8 128.959 18.35V2.62C128.959 1.17 127.789 0 126.339 0H4.89942C3.44942 0 2.27942 1.17 2.27942 2.62V18.34C2.27942 19.79 3.44942 20.96 4.89942 20.96H27.0694V28.47H21.9594C18.4894 28.47 15.4694 30.7 14.4494 34L0.359422 79.37C-1.21058 84.43 2.55942 89.57 7.86942 89.57H123.369C128.669 89.57 132.449 84.44 130.879 79.37ZM98.9194 28.48H88.4394V20.97H98.9194V28.48ZM83.1994 20.97V28.48H48.0294V20.97H83.1994ZM7.52942 5.24H123.719V15.72H7.52942V5.24ZM32.3194 20.96H42.7994V28.47H32.3194V20.96ZM123.379 84.32H7.86942C6.10942 84.32 4.83942 82.62 5.36942 80.92L19.4594 35.56C19.7994 34.46 20.8094 33.71 21.9594 33.71H109.289C110.439 33.71 111.449 34.45 111.789 35.56L125.879 80.92C126.409 82.63 125.119 84.32 123.379 84.32ZM93.6915 41.59H37.5615C36.1115 41.59 34.9415 42.76 34.9415 44.21V59.93C34.9415 61.38 36.1115 62.55 37.5615 62.55H93.6915C95.1415 62.55 96.3115 61.38 96.3115 59.93V44.21C96.3115 42.76 95.1415 41.59 93.6915 41.59ZM91.0715 57.31H40.1815V46.83H91.0715V57.31ZM103.589 72.11H108.089C109.539 72.11 110.709 73.28 110.709 74.73C110.709 76.18 109.539 77.35 108.089 77.35H103.589C102.139 77.35 100.969 76.18 100.969 74.73C100.969 73.28 102.139 72.11 103.589 72.11ZM87.9795 72.11H83.4795C82.0295 72.11 80.8595 73.28 80.8595 74.73C80.8595 76.18 82.0295 77.35 83.4795 77.35H87.9795C89.4295 77.35 90.5995 76.18 90.5995 74.73C90.5995 73.28 89.4295 72.11 87.9795 72.11ZM63.3701 72.11H67.8701C69.3201 72.11 70.4901 73.28 70.4901 74.73C70.4901 76.18 69.3201 77.35 67.8701 77.35H63.3701C61.9201 77.35 60.7501 76.18 60.7501 74.73C60.7501 73.28 61.9201 72.11 63.3701 72.11ZM47.7607 72.11H43.2607C41.8107 72.11 40.6407 73.28 40.6407 74.73C40.6407 76.18 41.8107 77.35 43.2607 77.35H47.7607C49.2107 77.35 50.3807 76.18 50.3807 74.73C50.3807 73.28 49.2107 72.11 47.7607 72.11ZM23.1513 72.11H27.6413C29.0913 72.11 30.2613 73.28 30.2613 74.73C30.2613 76.18 29.0913 77.35 27.6413 77.35H23.1513C21.7013 77.35 20.5313 76.18 20.5313 74.73C20.5313 73.28 21.7013 72.11 23.1513 72.11Z"/>
</mask>
<path fill-rule="evenodd" clip-rule="evenodd" d="M130.879 79.37L116.789 34.01C115.759 30.7 112.739 28.48 109.279 28.48H104.169V20.97H126.339C127.789 20.97 128.959 19.8 128.959 18.35V2.62C128.959 1.17 127.789 0 126.339 0H4.89942C3.44942 0 2.27942 1.17 2.27942 2.62V18.34C2.27942 19.79 3.44942 20.96 4.89942 20.96H27.0694V28.47H21.9594C18.4894 28.47 15.4694 30.7 14.4494 34L0.359422 79.37C-1.21058 84.43 2.55942 89.57 7.86942 89.57H123.369C128.669 89.57 132.449 84.44 130.879 79.37ZM98.9194 28.48H88.4394V20.97H98.9194V28.48ZM83.1994 20.97V28.48H48.0294V20.97H83.1994ZM7.52942 5.24H123.719V15.72H7.52942V5.24ZM32.3194 20.96H42.7994V28.47H32.3194V20.96ZM123.379 84.32H7.86942C6.10942 84.32 4.83942 82.62 5.36942 80.92L19.4594 35.56C19.7994 34.46 20.8094 33.71 21.9594 33.71H109.289C110.439 33.71 111.449 34.45 111.789 35.56L125.879 80.92C126.409 82.63 125.119 84.32 123.379 84.32ZM93.6915 41.59H37.5615C36.1115 41.59 34.9415 42.76 34.9415 44.21V59.93C34.9415 61.38 36.1115 62.55 37.5615 62.55H93.6915C95.1415 62.55 96.3115 61.38 96.3115 59.93V44.21C96.3115 42.76 95.1415 41.59 93.6915 41.59ZM91.0715 57.31H40.1815V46.83H91.0715V57.31ZM103.589 72.11H108.089C109.539 72.11 110.709 73.28 110.709 74.73C110.709 76.18 109.539 77.35 108.089 77.35H103.589C102.139 77.35 100.969 76.18 100.969 74.73C100.969 73.28 102.139 72.11 103.589 72.11ZM87.9795 72.11H83.4795C82.0295 72.11 80.8595 73.28 80.8595 74.73C80.8595 76.18 82.0295 77.35 83.4795 77.35H87.9795C89.4295 77.35 90.5995 76.18 90.5995 74.73C90.5995 73.28 89.4295 72.11 87.9795 72.11ZM63.3701 72.11H67.8701C69.3201 72.11 70.4901 73.28 70.4901 74.73C70.4901 76.18 69.3201 77.35 67.8701 77.35H63.3701C61.9201 77.35 60.7501 76.18 60.7501 74.73C60.7501 73.28 61.9201 72.11 63.3701 72.11ZM47.7607 72.11H43.2607C41.8107 72.11 40.6407 73.28 40.6407 74.73C40.6407 76.18 41.8107 77.35 43.2607 77.35H47.7607C49.2107 77.35 50.3807 76.18 50.3807 74.73C50.3807 73.28 49.2107 72.11 47.7607 72.11ZM23.1513 72.11H27.6413C29.0913 72.11 30.2613 73.28 30.2613 74.73C30.2613 76.18 29.0913 77.35 27.6413 77.35H23.1513C21.7013 77.35 20.5313 76.18 20.5313 74.73C20.5313 73.28 21.7013 72.11 23.1513 72.11Z" fill="#C6CED6"/>
<path d="M116.789 34.01L117.267 33.8617L117.267 33.8614L116.789 34.01ZM130.879 79.37L131.357 79.2221L131.357 79.2217L130.879 79.37ZM104.169 28.48H103.669V28.98H104.169V28.48ZM104.169 20.97V20.47H103.669V20.97H104.169ZM27.0694 20.96H27.5694V20.46H27.0694V20.96ZM27.0694 28.47V28.97H27.5694V28.47H27.0694ZM14.4494 34L14.9269 34.1483L14.9271 34.1477L14.4494 34ZM0.359422 79.37L-0.118081 79.2217L-0.118119 79.2218L0.359422 79.37ZM88.4394 28.48H87.9394V28.98H88.4394V28.48ZM98.9194 28.48V28.98H99.4194V28.48H98.9194ZM88.4394 20.97V20.47H87.9394V20.97H88.4394ZM98.9194 20.97H99.4194V20.47H98.9194V20.97ZM83.1994 28.48V28.98H83.6994V28.48H83.1994ZM83.1994 20.97H83.6994V20.47H83.1994V20.97ZM48.0294 28.48H47.5294V28.98H48.0294V28.48ZM48.0294 20.97V20.47H47.5294V20.97H48.0294ZM123.719 5.24H124.219V4.74H123.719V5.24ZM7.52942 5.24V4.74H7.02942V5.24H7.52942ZM123.719 15.72V16.22H124.219V15.72H123.719ZM7.52942 15.72H7.02942V16.22H7.52942V15.72ZM42.7994 20.96H43.2994V20.46H42.7994V20.96ZM32.3194 20.96V20.46H31.8194V20.96H32.3194ZM42.7994 28.47V28.97H43.2994V28.47H42.7994ZM32.3194 28.47H31.8194V28.97H32.3194V28.47ZM5.36942 80.92L5.84676 81.0688L5.84692 81.0683L5.36942 80.92ZM19.4594 35.56L19.9369 35.7083L19.9371 35.7077L19.4594 35.56ZM111.789 35.56L111.311 35.7064L111.312 35.7083L111.789 35.56ZM125.879 80.92L126.357 80.772L126.357 80.7717L125.879 80.92ZM40.1815 57.31H39.6815V57.81H40.1815V57.31ZM91.0715 57.31V57.81H91.5715V57.31H91.0715ZM40.1815 46.83V46.33H39.6815V46.83H40.1815ZM91.0715 46.83H91.5715V46.33H91.0715V46.83ZM116.312 34.1583L130.402 79.5183L131.357 79.2217L117.267 33.8617L116.312 34.1583ZM109.279 28.98C112.521 28.98 115.347 31.0577 116.312 34.1586L117.267 33.8614C116.172 30.3423 112.958 27.98 109.279 27.98V28.98ZM104.169 28.98H109.279V27.98H104.169V28.98ZM103.669 20.97V28.48H104.669V20.97H103.669ZM126.339 20.47H104.169V21.47H126.339V20.47ZM128.459 18.35C128.459 19.5239 127.513 20.47 126.339 20.47V21.47C128.066 21.47 129.459 20.0761 129.459 18.35H128.459ZM128.459 2.62V18.35H129.459V2.62H128.459ZM126.339 0.5C127.513 0.5 128.459 1.44614 128.459 2.62H129.459C129.459 0.893856 128.066 -0.5 126.339 -0.5V0.5ZM4.89942 0.5H126.339V-0.5H4.89942V0.5ZM2.77942 2.62C2.77942 1.44614 3.72556 0.5 4.89942 0.5V-0.5C3.17328 -0.5 1.77942 0.893857 1.77942 2.62H2.77942ZM2.77942 18.34V2.62H1.77942V18.34H2.77942ZM4.89942 20.46C3.72556 20.46 2.77942 19.5139 2.77942 18.34H1.77942C1.77942 20.0661 3.17328 21.46 4.89942 21.46V20.46ZM27.0694 20.46H4.89942V21.46H27.0694V20.46ZM27.5694 28.47V20.96H26.5694V28.47H27.5694ZM21.9594 28.97H27.0694V27.97H21.9594V28.97ZM14.9271 34.1477C15.8823 31.0575 18.7083 28.97 21.9594 28.97V27.97C18.2705 27.97 15.0566 30.3425 13.9717 33.8523L14.9271 34.1477ZM0.836925 79.5183L14.9269 34.1483L13.9719 33.8517L-0.118081 79.2217L0.836925 79.5183ZM7.86942 89.07C2.89735 89.07 -0.633508 84.2574 0.836963 79.5182L-0.118119 79.2218C-1.78765 84.6026 2.22149 90.07 7.86942 90.07V89.07ZM123.369 89.07H7.86942V90.07H123.369V89.07ZM130.402 79.5179C131.872 84.2667 128.332 89.07 123.369 89.07V90.07C129.007 90.07 133.027 84.6133 131.357 79.2221L130.402 79.5179ZM88.4394 28.98H98.9194V27.98H88.4394V28.98ZM87.9394 20.97V28.48H88.9394V20.97H87.9394ZM98.9194 20.47H88.4394V21.47H98.9194V20.47ZM99.4194 28.48V20.97H98.4194V28.48H99.4194ZM83.6994 28.48V20.97H82.6994V28.48H83.6994ZM48.0294 28.98H83.1994V27.98H48.0294V28.98ZM47.5294 20.97V28.48H48.5294V20.97H47.5294ZM83.1994 20.47H48.0294V21.47H83.1994V20.47ZM123.719 4.74H7.52942V5.74H123.719V4.74ZM124.219 15.72V5.24H123.219V15.72H124.219ZM7.52942 16.22H123.719V15.22H7.52942V16.22ZM7.02942 5.24V15.72H8.02942V5.24H7.02942ZM42.7994 20.46H32.3194V21.46H42.7994V20.46ZM43.2994 28.47V20.96H42.2994V28.47H43.2994ZM32.3194 28.97H42.7994V27.97H32.3194V28.97ZM31.8194 20.96V28.47H32.8194V20.96H31.8194ZM7.86942 84.82H123.379V83.82H7.86942V84.82ZM4.89208 80.7712C4.26096 82.7955 5.7748 84.82 7.86942 84.82V83.82C6.44404 83.82 5.41788 82.4445 5.84676 81.0688L4.89208 80.7712ZM18.9819 35.4117L4.89193 80.7717L5.84692 81.0683L19.9369 35.7083L18.9819 35.4117ZM21.9594 33.21C20.5885 33.21 19.386 34.1045 18.9817 35.4123L19.9371 35.7077C20.2129 34.8155 21.0304 34.21 21.9594 34.21V33.21ZM109.289 33.21H21.9594V34.21H109.289V33.21ZM112.267 35.4136C111.863 34.0926 110.658 33.21 109.289 33.21V34.21C110.221 34.21 111.036 34.8074 111.311 35.7064L112.267 35.4136ZM126.357 80.7717L112.267 35.4117L111.312 35.7083L125.402 81.0683L126.357 80.7717ZM123.379 84.82C125.451 84.82 126.988 82.809 126.357 80.772L125.402 81.068C125.83 82.451 124.788 83.82 123.379 83.82V84.82ZM37.5615 42.09H93.6915V41.09H37.5615V42.09ZM35.4415 44.21C35.4415 43.0361 36.3876 42.09 37.5615 42.09V41.09C35.8354 41.09 34.4415 42.4839 34.4415 44.21H35.4415ZM35.4415 59.93V44.21H34.4415V59.93H35.4415ZM37.5615 62.05C36.3876 62.05 35.4415 61.1039 35.4415 59.93H34.4415C34.4415 61.6561 35.8354 63.05 37.5615 63.05V62.05ZM93.6915 62.05H37.5615V63.05H93.6915V62.05ZM95.8115 59.93C95.8115 61.1039 94.8654 62.05 93.6915 62.05V63.05C95.4176 63.05 96.8115 61.6561 96.8115 59.93H95.8115ZM95.8115 44.21V59.93H96.8115V44.21H95.8115ZM93.6915 42.09C94.8654 42.09 95.8115 43.0361 95.8115 44.21H96.8115C96.8115 42.4839 95.4176 41.09 93.6915 41.09V42.09ZM40.1815 57.81H91.0715V56.81H40.1815V57.81ZM39.6815 46.83V57.31H40.6815V46.83H39.6815ZM91.0715 46.33H40.1815V47.33H91.0715V46.33ZM91.5715 57.31V46.83H90.5715V57.31H91.5715ZM108.089 71.61H103.589V72.61H108.089V71.61ZM111.209 74.73C111.209 73.0039 109.815 71.61 108.089 71.61V72.61C109.263 72.61 110.209 73.5562 110.209 74.73H111.209ZM108.089 77.85C109.815 77.85 111.209 76.4561 111.209 74.73H110.209C110.209 75.9039 109.263 76.85 108.089 76.85V77.85ZM103.589 77.85H108.089V76.85H103.589V77.85ZM100.469 74.73C100.469 76.4561 101.863 77.85 103.589 77.85V76.85C102.415 76.85 101.469 75.9039 101.469 74.73H100.469ZM103.589 71.61C101.863 71.61 100.469 73.0039 100.469 74.73H101.469C101.469 73.5561 102.415 72.61 103.589 72.61V71.61ZM83.4795 72.61H87.9795V71.61H83.4795V72.61ZM81.3595 74.73C81.3595 73.5562 82.3056 72.61 83.4795 72.61V71.61C81.7533 71.61 80.3595 73.0039 80.3595 74.73H81.3595ZM83.4795 76.85C82.3056 76.85 81.3595 75.9039 81.3595 74.73H80.3595C80.3595 76.4561 81.7533 77.85 83.4795 77.85V76.85ZM87.9795 76.85H83.4795V77.85H87.9795V76.85ZM90.0995 74.73C90.0995 75.9039 89.1533 76.85 87.9795 76.85V77.85C89.7056 77.85 91.0995 76.4561 91.0995 74.73H90.0995ZM87.9795 72.61C89.1533 72.61 90.0995 73.5561 90.0995 74.73H91.0995C91.0995 73.0039 89.7056 71.61 87.9795 71.61V72.61ZM67.8701 71.61H63.3701V72.61H67.8701V71.61ZM70.9901 74.73C70.9901 73.0039 69.5962 71.61 67.8701 71.61V72.61C69.044 72.61 69.9901 73.5561 69.9901 74.73H70.9901ZM67.8701 77.85C69.5962 77.85 70.9901 76.4561 70.9901 74.73H69.9901C69.9901 75.9039 69.044 76.85 67.8701 76.85V77.85ZM63.3701 77.85H67.8701V76.85H63.3701V77.85ZM60.2501 74.73C60.2501 76.4561 61.644 77.85 63.3701 77.85V76.85C62.1962 76.85 61.2501 75.9039 61.2501 74.73H60.2501ZM63.3701 71.61C61.644 71.61 60.2501 73.0039 60.2501 74.73H61.2501C61.2501 73.5561 62.1962 72.61 63.3701 72.61V71.61ZM43.2607 72.61H47.7607V71.61H43.2607V72.61ZM41.1407 74.73C41.1407 73.5561 42.0869 72.61 43.2607 72.61V71.61C41.5346 71.61 40.1407 73.0039 40.1407 74.73H41.1407ZM43.2607 76.85C42.0869 76.85 41.1407 75.9039 41.1407 74.73H40.1407C40.1407 76.4561 41.5346 77.85 43.2607 77.85V76.85ZM47.7607 76.85H43.2607V77.85H47.7607V76.85ZM49.8807 74.73C49.8807 75.9039 48.9346 76.85 47.7607 76.85V77.85C49.4869 77.85 50.8807 76.4561 50.8807 74.73H49.8807ZM47.7607 72.61C48.9346 72.61 49.8807 73.5561 49.8807 74.73H50.8807C50.8807 73.0039 49.4869 71.61 47.7607 71.61V72.61ZM27.6413 71.61H23.1513V72.61H27.6413V71.61ZM30.7613 74.73C30.7613 73.0039 29.3675 71.61 27.6413 71.61V72.61C28.8152 72.61 29.7613 73.5561 29.7613 74.73H30.7613ZM27.6413 77.85C29.3675 77.85 30.7613 76.4561 30.7613 74.73H29.7613C29.7613 75.9039 28.8152 76.85 27.6413 76.85V77.85ZM23.1513 77.85H27.6413V76.85H23.1513V77.85ZM20.0313 74.73C20.0313 76.4561 21.4252 77.85 23.1513 77.85V76.85C21.9775 76.85 21.0313 75.9039 21.0313 74.73H20.0313ZM23.1513 71.61C21.4252 71.61 20.0313 73.0039 20.0313 74.73H21.0313C21.0313 73.5561 21.9775 72.61 23.1513 72.61V71.61Z" fill="#FBFCFD" mask="url(#path-1-inside-1_1017_1023)"/>
</svg>
