<svg width="21" height="19" viewBox="0 0 21 19" fill="none" xmlns="http://www.w3.org/2000/svg">
<path d="M19.9456 13.5129C19.4332 13.2588 16.8899 12.0427 16.4148 11.8794C15.9397 11.707 15.595 11.6253 15.2503 12.1335C14.9056 12.6417 13.9181 13.767 13.6107 14.1119C13.3126 14.4477 13.0051 14.493 12.4928 14.2389C9.45575 12.7597 7.46212 11.5981 5.45918 8.24932C4.92817 7.35996 5.99019 7.42349 6.97769 5.49955C7.14537 5.16377 7.06153 4.87336 6.93111 4.61926C6.80068 4.36515 5.76661 1.88763 5.33807 0.880291C4.91885 -0.0998272 4.49031 0.0363014 4.17357 0.0181511C3.87546 7.38359e-07 3.53077 0 3.18607 0C2.84138 0 2.28242 0.127052 1.8073 0.626186C1.33219 1.1344 0 2.35047 0 4.82799C0 7.30551 1.85388 9.70135 2.10542 10.0371C2.36626 10.3729 5.74797 15.455 10.937 17.6421C14.2162 19.0215 15.5018 19.1395 17.1414 18.9036C18.1383 18.7584 20.1971 17.6875 20.6256 16.5077C21.0542 15.328 21.0542 14.3206 20.9237 14.1119C20.8026 13.885 20.4579 13.7579 19.9456 13.5129Z" fill="white"/>
</svg>
