<svg width="27" height="16" viewBox="0 0 27 16" fill="none" xmlns="http://www.w3.org/2000/svg">
<path d="M25.9305 3.71675L14.308 0.145944C13.6747 -0.0486379 12.9914 -0.0486379 12.3585 0.145944L0.73562 3.71675C-0.245207 4.018 -0.245207 5.31508 0.73562 5.61632L2.76186 6.23882C2.31728 6.7884 2.04395 7.45881 2.01686 8.19298C1.61561 8.42297 1.33312 8.83797 1.33312 9.33338C1.33312 9.78255 1.56978 10.1605 1.91061 10.4021L0.84687 15.1888C0.75437 15.605 1.07103 16 1.49728 16H3.83518C4.26185 16 4.57851 15.605 4.48601 15.1888L3.42227 10.4021C3.7631 10.1605 3.99977 9.78255 3.99977 9.33338C3.99977 8.8513 3.73018 8.44797 3.34727 8.21381C3.37894 7.58798 3.69893 7.03465 4.20935 6.68382L12.358 9.18755C12.7355 9.30338 13.4597 9.44797 14.3076 9.18755L25.9305 5.61674C26.9117 5.31508 26.9117 4.01842 25.9305 3.71675ZM14.6993 10.4621C13.5105 10.8271 12.4976 10.6255 11.9664 10.4621L5.92392 8.60589L5.33309 13.3334C5.33309 14.8063 8.91473 16 13.333 16C17.7513 16 21.333 14.8063 21.333 13.3334L20.7422 8.60547L14.6993 10.4621Z" fill="#9A9A9A"/>
</svg>
