<svg width="15" height="20" viewBox="0 0 15 20" fill="none" xmlns="http://www.w3.org/2000/svg">
<path d="M13.125 2.5H10C10 1.12109 8.87891 0 7.5 0C6.12109 0 5 1.12109 5 2.5H1.875C0.839844 2.5 0 3.33984 0 4.375V18.125C0 19.1602 0.839844 20 1.875 20H13.125C14.1602 20 15 19.1602 15 18.125V4.375C15 3.33984 14.1602 2.5 13.125 2.5ZM3.75 16.5625C3.23047 16.5625 2.8125 16.1445 2.8125 15.625C2.8125 15.1055 3.23047 14.6875 3.75 14.6875C4.26953 14.6875 4.6875 15.1055 4.6875 15.625C4.6875 16.1445 4.26953 16.5625 3.75 16.5625ZM3.75 12.8125C3.23047 12.8125 2.8125 12.3945 2.8125 11.875C2.8125 11.3555 3.23047 10.9375 3.75 10.9375C4.26953 10.9375 4.6875 11.3555 4.6875 11.875C4.6875 12.3945 4.26953 12.8125 3.75 12.8125ZM3.75 9.0625C3.23047 9.0625 2.8125 8.64453 2.8125 8.125C2.8125 7.60547 3.23047 7.1875 3.75 7.1875C4.26953 7.1875 4.6875 7.60547 4.6875 8.125C4.6875 8.64453 4.26953 9.0625 3.75 9.0625ZM7.5 1.5625C8.01953 1.5625 8.4375 1.98047 8.4375 2.5C8.4375 3.01953 8.01953 3.4375 7.5 3.4375C6.98047 3.4375 6.5625 3.01953 6.5625 2.5C6.5625 1.98047 6.98047 1.5625 7.5 1.5625ZM12.5 15.9375C12.5 16.1094 12.3594 16.25 12.1875 16.25H6.5625C6.39062 16.25 6.25 16.1094 6.25 15.9375V15.3125C6.25 15.1406 6.39062 15 6.5625 15H12.1875C12.3594 15 12.5 15.1406 12.5 15.3125V15.9375ZM12.5 12.1875C12.5 12.3594 12.3594 12.5 12.1875 12.5H6.5625C6.39062 12.5 6.25 12.3594 6.25 12.1875V11.5625C6.25 11.3906 6.39062 11.25 6.5625 11.25H12.1875C12.3594 11.25 12.5 11.3906 12.5 11.5625V12.1875ZM12.5 8.4375C12.5 8.60938 12.3594 8.75 12.1875 8.75H6.5625C6.39062 8.75 6.25 8.60938 6.25 8.4375V7.8125C6.25 7.64062 6.39062 7.5 6.5625 7.5H12.1875C12.3594 7.5 12.5 7.64062 12.5 7.8125V8.4375Z" fill="#733A77"/>
</svg>
